<?xml version="1.0" encoding="utf-8"?>
<!-- Generator: Adobe Illustrator 16.0.0, SVG Export Plug-In . SVG Version: 6.00 Build 0)  -->
<!DOCTYPE svg PUBLIC "-//W3C//DTD SVG 1.1//EN" "http://www.w3.org/Graphics/SVG/1.1/DTD/svg11.dtd">
<svg version="1.1" id="Layer_1" xmlns="http://www.w3.org/2000/svg" xmlns:xlink="http://www.w3.org/1999/xlink" x="0px" y="0px"
	 width="400px" height="400px" viewBox="0 0 400 400" enable-background="new 0 0 400 400" xml:space="preserve">
<path fill="#DDD9D9" d="M81.25,242.125c-1.841,0.051-2.467-1.168-3.253,0.865c-0.524,1.355-0.988,2.612-1.462,4.017
	c-0.953,2.815-2.068,5.661-3.396,8.269c-1.648,3.234-2.994,6.66-4.544,9.979c-1.324,2.836-2.426,5.748-3.944,8.491
	c-0.888,1.605-5.12,8.135-0.503,7.001c2.703-0.664,2.776-3.883,3.729-5.999c2.389-5.309,4.92-10.521,7.287-15.841
	c1.106-2.485,2.21-5.502,2.869-8.209c0.372-1.528,1.011-2.728,1.744-4.079c0.37-0.682,2.193-3.07,2.132-3.624
	c-0.14-1.268-2.649-1.031-3.532-1.244"/>
<path fill="#E0E0E0" d="M79.333,245.664c-0.496-1.801-1.683-4.485-2.663-2.5c-0.604,1.224-0.58,2.306-1.65,1.712
	c-0.242-0.135,0.134-0.231,0,0c-0.25,0.431-0.724,0.312-1.017,0.654c-2.561,3-0.844,6.418,2.125,8.505
	c1.328,0.933,1.795,2.413,3.371,2.296c2.657-0.197,1.406-2.603,0.997-4.203c-0.171-0.671-0.025-1.447-0.164-2.13
	c-0.071-0.35,0.152-0.862-0.025-1.179c-0.205-0.366-0.993-0.26-1.108-0.519c-0.56-1.257,1.576-4.237-1.7-4.304"/>
<path fill="#B5B5B6" d="M73,217.501c-1.24,0.915-1.292,3.219-1.166,4.66c0.176,2.001,2.576,4.454,3.98,5.765
	c1.611,1.504,2.553,2.489,3.273,4.76c0.615,1.939,0.356,3.328-0.129,5.184c-0.399,1.526-0.505,3.17,1.201,4.052
	c1.964,1.016,1.643-1.341,1.983-2.539c0.414-1.462,1.211-2.795,1.857-4.16c0.931-1.969,1.539-4.571,2-6.737
	c0.465-2.189,0.182-4.752,0-6.967c-0.251-3.062-3.671-4.887-6.503-5.016c-2.121-0.098-6.646-0.604-7.163,2.165"/>
<path fill="#151415" d="M103.338,361.4c2.334-0.207,3.334-1.495,3.328-3.752c-0.003-1.239,0.119-2.087-0.658-3.096
	c-1.341-1.741-2.902-1.745-4.769-2.196c-2.376-0.574-3.044-1.17-4.483-2.83c-1.709-1.972-3.778,0.061-3.81,2.109
	c-0.02,1.255,0.576,2.202,1.608,2.874c1.797,1.169,2.96,1.848,4.237,3.8C99.842,359.915,101.199,361.591,103.338,361.4z"/>
<path fill="#2E1218" d="M75.167,338.353c0.007,1.828-1.701,1.914-2.824,3.042c-1.814,1.822-2.306,6.057-1.272,8.33
	c0.394,0.866,1.581,2.703,2.795,2.368c1.125-0.31,1.307-3.078,1.972-4.053c0.719-1.055,1.733-2.009,2.533-3.009
	c0.752-0.941,1.73-2.777,2.845-3.164c-0.829-1.126-3.911-2.106-5.383-2.849"/>
<path fill="#2E1218" d="M98.167,345.686c-0.869,1.031-1.716,1.056-2.156,2.414c-0.423,1.308-0.296,3.101,0.86,3.968
	c0.364,0.273,2.586,1.1,2.959,1.09c1.747-0.047,1.326-1.602,2.158-2.919c0.435-0.688,2.12-1.615,1.699-2.677
	c-0.552-1.394-3.957-1.538-5.186-1.876"/>
<path fill="#2E1218" d="M83.321,312.521c-1.549-0.46-3.965-0.49-5.321-1.355c-0.641-0.409-2.093-3.312-3.005-1.807
	c-0.627,1.035-0.857,2.715-1.395,3.887c-0.721,1.569-0.8,3.344-1.464,4.941c-0.483,1.161-0.781,2.006-1.088,3.285
	c-1.957,8.15,0.517,16.614,8.803,19.644c1.318,0.482,2.613,1.302,3.975,1.579c4.283,0.873,8.121,0.057,10.173-3.929
	c-0.116,0.226-0.035,3.214,0.013,3.674c0.123,1.186,0.692,2.198,1.875,2.75c1.797,0.839,3.78,1.617,5.743,1.951
	c9.811,1.669,17.62-2.738,24.569-9.327c1.922-1.821,4.029-4.133,4.968-6.628c0.416-1.104,0.581-2.217,1.117-3.346
	c0.278-0.586,1.297-2.071,0.887-2.832c0.021-0.104,0.013-0.206-0.025-0.305c-7.535-0.419-15.214-0.056-22.585-1.968
	c-2.499-0.648-5.029-1.76-7.405-2.796c-2.287-0.997-4.723-1.856-6.987-2.786C91.954,315.424,87.627,313.801,83.321,312.521z"/>
<path fill="#79BA70" d="M94.333,264.342c-0.204,1.169-1.412,3.472-1.958,5.015c-0.365,1.03-0.476,2.032-0.832,3.105
	c-0.614,1.853-1.51,3.795-2.211,5.703c-1.522,4.144-3.705,8.149-5.465,12.359c-1.619,3.871-3.325,7.582-4.941,11.487
	c-0.592,1.43-3.27,4.222-3.141,5.663c0.108,1.218,3.985,2.25,5.316,2.759c4.082,1.561,8.405,2.785,12.548,4.241
	c4.774,1.678,9.41,3.97,14.396,4.971c4.922,0.989,9.864,2.41,14.789,3.398c2.162,0.434,4.325,0.188,6.534,0.289
	c1.836,0.085,3.693,0.916,5.44,0.825c-0.034-2.315,1.313-3.662,2.245-5.653c1.129-2.411,2.159-4.871,3.145-7.343
	c1.902-4.775,3.59-9.633,5.265-14.491c1.167-3.387,2.131-6.765,3.296-10.177c0.828-2.426,1.616-4.896,1.981-7.44
	c0.145-1.01-0.01-1.943,0.163-2.924c0.157-0.893,0.712-1.516,0.597-2.493c-0.416-3.511-5.992-0.013-7.565,0.619
	c-1.896,0.762-3.845,1.316-5.691,2.132c-1.842,0.813-4.062,1.369-6.09,1.786c-4.362,0.897-10.309,1.728-14.53,0.338
	c-4.223-1.391-7.97-3.791-11.527-6.408c-2.896-2.13-5.107-4.588-8.291-6.416c-1.187-0.681-2.671-1.167-3.805-1.513"/>
<path fill="#5B8851" d="M100.036,264.491c-1.361-0.992-2.734-3.126-4.525-3.358c-1.668-0.218-2.167,0.78-1.444,2.284
	c1.383,2.874,5.107,3.403,7.278,5.285c1.253,1.087,2.165,2.533,2.913,3.988c1.523,2.963,3.94,4.162,6.604,6.108
	c2.008,1.467,4.559,2.227,6.987,2.619c3.489,0.565,6.455-0.243,9.843-0.723c1.475-0.209,2.716-0.057,4.173-0.656
	c1.633-0.672,3.073-1.745,4.729-2.374c1.887-0.717,3.807-1.72,5.776-2.198c2.78-0.676,5.704-1.26,8.377-2.295
	c2.487-0.962,2.358-3.438,2.228-5.939c-3.774-0.485-5.935,1.743-9.135,3.14c-3.819,1.666-7.582,3.454-11.336,5.261
	c-2.003,0.964-4.276,2.036-6.392,2.459c-3.631,0.726-5.565,0.958-8.825-0.665c-3.312-1.648-5.363-4.207-8.318-6.349
	C105.982,268.913,103.024,266.669,100.036,264.491z"/>
<path fill="#5B8851" d="M96.404,317.275c0.238,0.104,0.485,0.234,0.752,0.411c0.873,0.577,1.801,1.03,2.776,1.402
	c1.363,0.521,2.795,0.22,4.107,0.658c0.978,0.326,1.835,0.901,2.774,1.313c0.979,0.43,2.03,0.64,3.032,1.018
	c1.35,0.509,2.781,0.745,4.206,0.929c1.396,0.181,2.467,0.645,3.812,0.949c3.06,0.692,6.244,0.84,9.338,1.34
	c1.167,0.188,2.356,0.394,3.542,0.407c0.877,0.011,1.698-0.236,2.58-0.275c2.047-0.091,3.716-1.554,2.528-3.698
	c-0.788,1.781-2.457,1.511-4.108,1.534c-1.02,0.015-1.998,0.187-3.016,0.053c-2.192-0.287-4.93,0.067-6.974-0.786
	c-1.852-0.773-3.806-0.475-5.742-0.787c-0.901-0.146-1.591-0.809-2.555-0.841c-0.784-0.026-1.572,0.14-2.334-0.122
	c-1.145-0.393-1.843-1.465-3.132-1.646c-0.822-0.115-1.611,0.038-2.405-0.262c-0.593-0.225-1.092-0.644-1.7-0.838
	c-0.589-0.188-1.139-0.187-1.683-0.436c-0.635-0.292-1.28-0.799-1.852-1.201c-0.749-0.527-1.807-0.471-2.419-1.015
	c-1.031-0.917-2.157-1.44-3.531-1.651c-0.827-0.127-1.644-0.047-2.447-0.299c-0.879-0.276-1.619-0.68-2.564-0.757
	c-1.625-0.133-3.388-0.795-4.928-1.43c-0.986-0.406-1.954-0.884-3.045-0.9c-1.479-0.023-2.684-0.806-3.834-1.757
	c-0.522-0.432-1.598-1.722-2.383-1.253c-0.622,0.37-0.37,1.503-0.096,1.999c0.531,0.961,1.93,1.64,2.877,2.069
	c2.043,0.927,4.209,1.508,6.376,2.085c2.22,0.591,4.441,1.383,6.613,2.083c1.06,0.342,2.115,0.62,3.163,0.999
	C95.023,316.895,95.673,316.957,96.404,317.275z"/>
<path fill="#5B8851" d="M93.167,267.837c-2.515,0.348,1.199,3.897,1.625,4.838c0.71,1.564,0.385,3.052,0.691,4.653
	c0.818,4.272-0.059,7.557-3.492,10.749c-1.408,1.309-3.076,1.54-4.954,1.917c-0.949,0.19-4.251,0.261-4.715,1.13
	c-0.67,1.254,1.871,2.477,2.793,2.637c4.328,0.752,9.8-3.567,11.713-7.107c0.877-1.624,1.165-4.121,1.338-6.02
	c0.211-2.313,0.517-4.688-0.625-6.801c-0.893-1.65-3.061-6.237-5.375-5.662"/>
<path fill="#4C90CD" d="M144.833,300.685c-0.146,1.91-2.604,4.385-3.245,6.532c-0.528,1.771-0.83,3.802-0.921,5.652
	c-0.185,3.742-0.251,8.061,1.033,11.538c1.534,4.156,3.214,8.756,6.718,11.552c3.386,2.702,8.055,4.283,12.086,5.56
	c7.649,2.422,16.67,0.217,23.487-3.442c3.661-1.965,7.188-4.487,8.5-8.554c1.332-4.129,4.99-9.053,5.357-13.544
	c0.308-3.77-0.141-8.237-1.14-12.049c-0.217-0.827-0.752-3.151-1.4-3.561c-0.93-0.589-2.774,0.264-3.617,0.463
	c-2.595,0.611-5.224,1.323-7.816,1.843c-7.603,1.525-15.853,0.677-23.579,0.677c-5.432,0-10.102-0.716-14.968-2.659
	c-0.432-0.173-0.887-0.463-1.328-0.674"/>
<path fill="#F05760" d="M170.5,309.347c1.706-3.171,5.228-4.282,8.57-4.773c1.774-0.261,3.063-0.493,4.836-0.738
	c0.774-0.107,1.877-0.353,2.625-0.51c1.16-0.245,2.436-0.041,3.614-0.075c0.491-0.015,0.981-0.046,1.467-0.125
	c1.063-0.175,2.592,0.072,3.62-0.299c-0.958-0.197-2.523,0.791-3.456,1.063c-0.946,0.274-1.81,0.465-2.778,0.641
	c-1.789,0.324-3.925,0.464-5.63,1.068c-1.59,0.564-3.198,1.338-4.783,1.971c-2.676,1.069-4.786,3.188-8.244,2.431"/>
<path fill="#141314" d="M180.723,351.151c0,0.797-0.272,2.087,0.319,2.7c0.719,0.747,2.508,0.419,3.416,0.716
	c1.589,0.521,4.796,3.057,5.537,0.578c1.529-5.122-7.351-4.031-10.02-3.78c-0.285,0.445-0.208,0.883,0.063,1.349"/>
<path fill="#4D90CD" stroke="#000000" stroke-miterlimit="10" d="M163.2,341.726c1.25,1.739,0.411,2.936,0.097,5.138
	c-0.315,2.205-3.161,6.294,0.04,7.23c1.534,0.45,2.556,0.454,3.58-0.901c0.884-1.17,1.69-2.977,2.043-4.37
	c0.637-2.52,1.547-4.053,1.208-6.639"/>
<path fill="#4D90CD" d="M174.667,341.354c3.096,1.08,3.158,6.726,5.338,9.037c1.13,1.198,2.541,1.691,4.17,1.796
	c1.982,0.127,3.819,0.068,1.991-1.996c-1.237-1.396-2.821-2.987-3.638-4.67c-0.65-1.341-0.14-2.915-0.354-4.33
	c-0.235-1.55-0.798-3.163-2.666-2.85c-1.431,0.24-3.937,2.084-3.675,3.68"/>
<path fill="#4D90CD" d="M278.333,329.353c2.179,0.64,4.008,1.502,6.38,0.55c3.671-1.474,2.576-5.513-1.229-5.33
	c-1.869,0.09-7.479,1.656-6.817,4.446"/>
<path fill="#4D90CD" d="M232.833,349.686c-1.193,0.99-1.112,3.599,0.195,4.467c1.058,0.702,3.276,0.713,4.476,0.333
	c3.223-1.02,3.283-4.772,3.138-7.778c-2.726,0.604-5.327,3.302-8.142,3.479"/>
<path fill="#252525" d="M192.833,283.501c-0.182,2.561,0.486,5.778,0.829,8.329c0.35,2.601,1.804,4.885,2.375,7.384
	c1.406,6.155,8.286,1.036,11.814,3.519c-1.221,1.626-2.676,3.394-4.173,4.769c-0.921,0.846-2.598,1.467-2.996,2.739
	c-0.296,0.946,0.217,2.429,0.172,3.454c-0.069,1.575,0.624,3.291,1.178,4.731c0.806,2.092,1.807,3.987,2.139,6.25
	c0.479,3.26,1.372,6.428,1.628,9.722c0.114,1.472,0.352,4.434-0.27,5.784c-0.804,1.744-2.071,0.428-3.756,0.964
	c-0.967,0.308-2.241,1.349-3.082,1.942c-1.845,1.304-3.9,3.48-1.047,5.021c2.211,1.194,5.631,0.683,8.027,0.476
	c3.872-0.333,7.608-1.547,11.477-1.908c5.086-0.476,9.733,3.1,15.018,1.544c1.719-0.506,2.93-2.216,4.42-3.143
	c1.295-0.807,2.706-1.786,3.987-2.506c1.667-0.937,4.001-1.215,5.839-1.237c4.688-0.057,10.69,2.71,15.078,0.495
	c4.783-2.413,7.737-6.922,10.794-11.128c0.991-1.364,1.919-3.341,3.51-4.089c1.992-0.937,4.27-0.109,6.214-1.471
	c1.974-1.382,3.167-4.685,4.649-6.624c1.763-2.305,4.02-3.262,6.18-5.091c1.816-1.539,1.658-4.33-0.867-4.606
	c-2.34-0.256-5.126,1.027-7.439,0.364c-1.663-0.478-3.353-3.055-4.416-4.354c-1.58-1.93-2.926-4.067-3.615-6.483
	c-1.057-3.704-3.47-10.05-7.422-11.641c-3.271-1.317-7.717,2.874-10.009,4.781c-2.568,2.138-4.711,2.476-5.873-1.361
	c-0.503-1.661-0.582-3.769-0.9-5.455c-0.291-1.546-0.96-3.279-0.984-4.847c-0.023-1.484,0.797-2.5,1.286-3.842
	c0.47-1.289,0.366-2.755,0.876-4.029c0.633-1.582,1.621-2.576,1.132-4.396c-0.11-0.41-2.173-3.945-2.476-3.564
	c-1.949,2.455-3.152,5.611-4.676,8.384c-1.561,2.84-2.899,5.746-5.148,8.12c-1.373,1.448-3.302,2.711-4.964,3.847
	c-1.476,1.009-3.193,2.441-4.98,2.667c-1.904,0.24-4.168,0.181-5.898,1.016c-2.041,0.984-3.813,2.247-5.968,3.105
	c-4.634,1.843-8.977,1.229-13.666-0.098c-4.176-1.182-7.904-3.343-11.491-5.662c-0.835-0.539-1.67-2.037-2.838-1.87"/>
<path fill="#B7B7B7" d="M293.75,309.75c0,1.438,0.203,2.829-0.868,3.947c-1.566,1.635-4.173,1.58-5.761,3.142
	c-1.825,1.796-2.515,4.48-4.151,6.411c-0.97,1.144-1.976,2.013-3.467,2.25c-1.202,0.19-2.622-0.066-3.635,0.716
	c-1.607,1.243,0.403,1.873,1.632,1.516c1.614-0.469,3.849-0.753,5.251-1.726c1.24-0.86,2.589-1.617,3.593-2.783
	c1.584-1.84,2.738-3.908,3.817-6.061c0.92-1.835,2.339-1.965,4.21-2.722c0.973-0.393,2.076-0.781,1.756-2.072
	c-0.192-0.781-1.431-2.252-2.252-2.368"/>
<path fill="#B7B7B7" d="M198.125,342.25c-2.871-0.018-3.88,4.022-2.6,6c2.032,3.14,5.582,3.29,9.072,2.888
	c4.306-0.495,7.805-2.82,12.19-3.013c1.668-0.073,2.463-0.38,3.855,0.506c2.974,1.89,7.002,1.869,10.471,1.744
	c2.497-0.09,5.388-1.031,7.556-2.278c3.193-1.836,5.7-4.373,9.693-3.972c1.782,0.18,3.225,1.22,5.029,1.379
	c2.052,0.181,4.001,0.129,5.979-0.349c3.676-0.888,5.923-3.286,8.136-6.174c1.733-2.263,4.034-4.229,5.865-6.238
	c1.39-1.525,3.212-3.674,4.155-5.508c0.139-0.27-2.516-0.058-2.851,0.142c-0.902,0.539-1.298,1.531-1.759,2.415
	c-0.475,0.909-0.948,1.473-1.606,2.238c-1.157,1.346-1.303,3.3-2.612,4.505c-3.163,2.91-7.491,6.179-11.946,6.465
	c-1.749,0.112-3-0.321-4.597-0.844c-1.56-0.51-3.022-1.137-4.717-1.156c-2.588-0.029-5.91,0.59-8.166,1.927
	c-1.769,1.049-2.659,3.181-4.505,4.221c-3.931,2.216-9.692,1.22-13.671-0.269c-1.918-0.718-4.423-1.137-6.458-1.261
	c-4.292-0.26-7.812,3.175-12.015,3.382c-2.604,0.127-7.69-1.192-5.752-4.882c0.569-1.084,2.027-1.354,2.877-2.118"/>
<path fill="#D3D3D3" d="M232.281,305.729c-3.094,1.126-6.225,2.176-9.287,3.385c-1.511,0.597-4.896,0.389-5.404,2.325
	c-0.477,1.817,1.602,2.857,2.782,3.686c0.414,0.29,1.611,0.787,1.88,1.145c1.019,1.352,0.125,4.339-0.048,5.84
	c-0.33,2.868,2.805,4.004,5.172,4.016c1.046,0.005,2.674-0.894,3.633-1.494c0.229,0.642-0.057,1.435,0.169,2.092
	c0.251,0.73,1.337,1.74,1.94,2.127c1.822,1.17,5.24,1.598,7.338,1.248c1.916-0.32,5.579-2.465,4.581-4.835
	c1.712-0.103,3.433,1.084,4.988,1.769c1.238,0.545,3.158,0.77,4.478,0.844c1.74,0.099,2.299-1.289,2.869-2.717
	c0.315-0.787,0.593-1.521,0.726-2.352c0.174-1.091-0.188-2.334,1.108-2.782c1.242-0.429,2.799,0.401,4.138-0.109
	c3.372-1.287,4.953-4.569,4.656-8.005c-0.207-2.394-1.659-2.757-3.568-3.535c-0.606-0.247-1.711-0.447-2.05-0.873
	c0.627-0.598,2.171-3.391,1.877-4.249c-0.362-1.057-2.973-1.296-3.884-1.725c-1.256-0.591-3.821-1.132-4.512-2.406
	c-0.406-0.749,0.223-1.151-0.704-1.617c-0.782-0.395-1.794-0.041-2.521,0.271c-3.543,1.518-7.014,3.587-10.716,4.673
	C238.678,303.398,235.497,304.559,232.281,305.729z"/>
<path fill="#EAEAEA" d="M204.25,306.375c1.879-0.066,3.704,0.429,5.531,0.716c1.401,0.221,2.827,0.159,4.257,0.159
	c2.844,0,5.704-0.29,8.46-0.744c5.788-0.954,11.184-2.581,16.6-4.854c4.897-2.056,10.156-3.748,14.715-6.524
	c2.368-1.442,4.671-2.943,6.81-4.723c1.112-0.925,2.254-1.727,3.384-2.658c0.881-0.727,2.661-3.115,3.668-1.391
	c1.497,2.561-2.633,3.547-4.027,4.312c-2.95,1.617-5.747,3.953-8.362,6.057c-1.163,0.937-2.524,1.676-3.672,2.671
	c-0.519,0.45-1.647,0.883-1.91,1.548c-0.451,1.139,0.254,0.861,1.168,1.125c1.93,0.557,3.526,1.894,4.855,3.362
	c1.87,2.066,3.84,6.16,2.398,8.862c-0.839,1.571-1.688,3.302-3.554,3.694c-0.698,0.147-1.431,0.036-2.14,0.201
	c-2.831,0.664-4.952,3.123-7.934,3.439c-2.561,0.271-5.318-0.315-7.899-0.378c-3.317-0.08-6.904-3.727-7.816-6.75
	c-0.199-0.659-1.631-5.862-0.293-5.856c-2.413-0.01-4.741,0.045-7.15,0.509c-2.317,0.446-4.932-0.709-7.171-0.322
	c-1.837,0.316-5.144,0.174-7.011,0.176c-1.777,0.002-1.777,0.002-4.107-0.851c0.398-0.721,0.948-1.028,1.701-1.405"/>
<path fill="#D3D3D3" d="M197.25,210.25c-2.948-1.38-16.169-4.42-12.438-8.493c1.89-2.064,5.224-1.344,7.875-2.006
	c3.171-0.792,5.649-3.009,7.313-5.734c1.809-2.961,1.972-4.803,5.685-5.024c2.639-0.158,5.979,1.217,8.536,1.563
	c5.02,0.679,7.396-4.983,12.105-3.555c3.382,1.026,7.834,6.434,10.981,7.868c3.335,1.521,8.939,1.702,12.368,3.215
	c3.28,1.447,4.837,4.052,5.099,8.166c0.255,4.009-7.333,5.046-10.184,6.751c-6.7,4.009-6.392-1.83-11.328-5.497
	c-5.74-4.266-14.932-4.879-21.855-4.578c-5.826,0.253-10.502,3.507-14.407,6.825"/>
<path fill="#FAE571" d="M192,220.17c-0.184-0.079-0.267,0.107-0.362-0.138c0.571-0.861,0.488-1.861,0.892-2.77
	c0.875-1.97,1.065-3.707,2.64-5.398c1.283-1.378,2.858-2.467,4.404-3.524c2.778-1.899,6.162-3.382,9.444-3.967
	c3.949-0.703,8.262-1.202,12.319-0.406c2.718,0.533,4.963,0.478,7.569,1.755c3.674,1.799,7.781,4.076,10.393,7.29
	c1.27,1.563,2.808,3.254,3.672,5.001c0.922,1.863,1.679,3.754,2.037,5.824c0.317,1.834,0.679,3.559,0.845,5.391
	c0.163,1.808,0.124,3.23,0.528,5.013c0.445,1.967,0.597,4.248,0.777,6.272c0.117,1.313,0.327,3.01,0.628,4.379
	c0.497,2.26,1.656,4.281,2.065,6.558c0.441,2.453,0.41,5.091,1.382,7.32c1.075,2.47,0.847,3.995-0.025,6.529
	c-0.774,2.248-2.514,3.31-3.768,5.384c-1.782,2.948-2.183,6.125-4.312,8.658c-2.061,2.452-4.286,3.944-6.972,5.909
	c-3.716,2.719-7.858,4.965-12.692,4.729c-2.771-0.136-4.795,0.041-7.04,1.535c-2.011,1.34-3.832,0.624-6.075-0.139
	c-5.022-1.707-10.404-3.063-14.859-5.827c-2.342-1.453-3.704-2.997-3.825-5.886c-0.091-2.175-0.273-4.345-0.385-6.52
	c-0.106-2.068-0.196-2.957-1.083-4.634c-1.213-2.294-0.699-6.396-0.699-9.03c0-3.199-0.667-6.201-0.667-9.459
	c0.001-2.99,0.667-5.708,0.667-8.729c0-2.791,0.141-5.565,0.167-8.343c0.042-4.546,0.64-9.323,2.085-13.565
	c0.685-2.013,2.077-4.322,3.749-5.713"/>
<path fill="#848484" stroke="#000000" stroke-miterlimit="10" d="M269.333,208.001c0.183,1.503-0.702,3.476-0.991,4.959
	c-0.396,2.029-0.585,4.17-0.916,6.249c-0.522,3.285-1.082,6.453-0.9,9.938c0.317,0.164,0.777,0.236,1.125,0.17
	c0.068-3.655-0.193-7.03,0.608-10.788c0.373-1.747,0.714-3.39,1.112-5.103c0.356-1.538,1.333-3.468,1.27-5.066
	c-0.346-0.132-0.769-0.251-1.141-0.192"/>
<path fill="#2D2D2D" d="M238.33,226.144c-0.135,1.673-0.88,3.327-1.316,4.938c-0.418,1.543-1.71,2.709-1.62,4.4
	c2.072,0.107,4.754,0.166,6.751,0.818c1.508,0.492,2.904,1.872,4.58,1.869c-0.14-1.712,0.573-6.269-0.264-7.73
	c-1.155-2.018-4.631-3.852-7.131-3.118"/>
<path fill="#FAE571" d="M267.658,247.844c-0.581,4.148-0.654,7.999-1.58,12.089c-0.916,4.043-1.844,7.953-2.87,12
	c-0.411,1.62-0.871,3.324-1.041,4.944c-0.316,3.02,6.01,6.978,4.498,9.205c-0.699,1.03-2.792,2.172-3.84,2.859
	c-2.009,1.318-3.931,5.371-6.708,4.072c-2.152-1.007-3.421-4.477-3.616-6.671c-0.24-2.698-1.075-4.573-0.552-7.438
	c0.361-1.979,0.467-3.974,0.828-5.961c0.17-0.94,0.479-3.258,1.425-3.791c1.741-0.982,1.943,1.792,3.013,2.57
	c1.711-4.966,2.516-10.14,4.582-15.067c1.508-3.596,1.086-7.038,2.076-10.783c0.229-0.863,0.76-1.771,0.745-2.672
	c-0.011-0.63-0.456-1.234-0.48-1.898c-0.048-1.271,0.453-2.756,2.012-2.442c0.354,0.071,3.239,1.146,3.339,1.344
	c0.411,0.834-0.809,2.426-1.051,3.203C268.004,244.801,267.862,246.39,267.658,247.844z"/>
<path fill="#2D2D2D" d="M202,224.146c-2.794-0.098-7.102,1.707-9.444,3.147c-3.062,1.882-4.575,8.884-2.571,11.952
	c-0.274-0.42,4.896-2.907,5.349-3.256c2.6-1.999,4.75-1.006,7.76-1.67c-0.867-2.472-1.594-5.453-1.594-8.069"/>
<path fill="#FAE571" d="M154.667,259.501c1.371-0.487,2.778-2.821,3.795-3.925c1.137-1.231,2.319-2.412,3.535-3.566
	c2.858-2.714,5.706-3.304,9.679-3.342c3.782-0.036,6.334,0.461,9.662,2.121c1.695,0.846,4.524,2.293,5.736,3.659
	c1.007,1.136,0.711,3.71,2.11,4.502c0.206-1.328,0.638-2.163,0.607-3.476c-0.036-1.551-0.107-3.149-0.421-4.677
	c-0.358-1.738-0.449-3.973-1.11-5.676c-1.586-4.09-5.542-6.085-9.333-7.658c-4.249-1.762-9.539-2.222-14-0.596
	c-2.009,0.732-3.787,1.735-5.429,3c-1.962,1.512-2.544,2.722-3.275,4.957c-1.456,4.45-2.509,10.545-1.387,15.343"/>
<path fill="#FAE571" d="M149.658,281.388c-0.352,2.087-0.55,4.154-1.289,6.168c-0.891,2.431-1.817,4.89-2.202,7.432
	c-0.159,1.051-0.339,2.087-0.763,2.97c-0.422,0.878-0.946,1.18-1.044,2.359c2.979,0.711,5.424,2.345,8.473,3.024
	c5.291,1.18,11.245,1.114,16.632,0.993c-1.129-2.974-1.976-5.89-3.579-8.583c-1.313-2.206-0.067-5.025,2.773-5.312
	c2.229-0.224,4.894,1.713,6.334,3.232c1.633,1.722,3.579,3.637,4.791,5.695c0.593,1.008,0.843,2.758,2.062,3.244
	c1.158,0.461,2.468-0.467,3.576-0.743c1.493-0.372,3.098-0.579,4.615-0.869c1.133-0.217,2.84,0.09,3.868-0.273
	c2.648-0.936,0.403-4.881,0.002-6.883c-0.436-2.172-0.631-4.447-0.908-6.622c-0.328-2.576-0.77-5.081-1.171-7.635
	c-0.222-1.412-0.342-5.121-1.512-6.084c-0.514,1.769-1.07,4.239-2.351,5.766c-1.461,1.74-4.27,3.386-6.282,4.443
	c-3.869,2.034-7.462,2.831-11.818,2.798c-5.604-0.042-8.987-2.145-12.032-6.504c-1.035-1.48-1.852-2.905-2.677-4.509
	c-1.087-2.113-1.692-4.48-2.295-6.75c-0.177,2.211-0.65,4.774-1.207,6.915C151.146,277.625,150.001,279.35,149.658,281.388z"/>
<path fill="#FAE571" d="M190.333,318.516c1.179-1.396,1.564-3.055,3.167-4.179c1.368-0.959,2.765-1.015,4.141-1.636
	c0.071,1.482,0.511,5.078-0.8,6.082c-1.178,0.903-4.881,0.232-6.341,0.232"/>
<path fill="#FAE571" d="M143.442,320.295c5.386,1.43,3.551-3.618,3.558-6.943c0.004-2.413-0.438-5.28-3.573-4.445
	c-2.173,0.577-3.369,2.795-3.776,4.865C138.973,317.21,139.752,319.315,143.442,320.295z"/>
<path fill="#FAE571" d="M92.667,270.34c1.865,0.331,2.692,4.492,2.991,6.037c0.379,1.96,0.662,4.428,0.346,6.459
	c-0.419,2.697-2.622,4.8-4.792,6.15c-1.135,0.706-2.333,1.386-3.721,1.519c-1.11,0.107-2.229-0.146-3.311,0.159
	c0.033-1.583,2.235-2.982,2.694-4.649c0.334-1.213,0.048-2.588,0.108-3.843c0.088-1.838-0.467-1.971-1.779-3.632
	c-1.223-1.55-1.314-3.66-2.333-5.324c-1.646-2.688-2.929-5.869-3.997-8.84c-0.557-1.547-1.772-3.078-0.245-4.026
	c0.897-0.558,2.611-0.663,3.716-0.669c0.618,2.837,2.248,4.897,4.152,7.297c1.324,1.669,2.726,6.749,5.153,6.179
	c0.019-0.382,0.11-0.935,0.017-1.316"/>
<path fill="#FBE670" d="M86.5,193.25c-0.041,5.544,0.338,7.807,1.25,14.253c1.048,7.409,2.353,13.455,3.75,20.581
	c1.386,7.066,2.122,14.594,2.5,21.921c0.194,3.756-0.444,8.227,1.855,11.492c1.182,1.68,2.58,1.846,4.223,2.749
	c2.073,1.139,4.184,3.213,5.764,4.959c4.048,4.473,7.102,8.771,13.495,9.627c4.621,0.618,14.681-2.726,18.368-4.389
	c2.628-1.186,5.192-2.499,7.801-3.727c1.253-0.59,2.56-1.291,3.937-1.547c1.074-0.2,2.848,0.28,3.61-0.671
	c0.846-1.057,0.25-5.271,0.412-6.71c0.578-5.11,1.913-10.126,2.346-15.253c1.077-12.765-0.054-26.42-3.701-38.479
	c-1.324-4.378-2.516-8.183-4.919-12.092c-1.741-2.83-4.753-6.435-7.184-8.741c-4.842-4.591-13.759-4.665-20.007-5.657
	c-6.487-1.031-12.617,0.154-18.75,2.382C95.567,186.015,89.439,187.497,86.5,193.25"/>
<path fill="#44A247" d="M94.167,157.834c2.507-1.983,7.565-1.793,10.399-0.633c2.204,0.902,3.816,2.644,5.947,3.683
	c1.672,0.816,3.42,1.327,5.158,1.904c3.599,1.197,6.787,2.496,10.655,2.917c4.112,0.448,8.006,1.693,11.303,4.425
	c1.566,1.298,2.956,2.221,3.366,4.408c0.273,1.455,0.379,3.352,0.045,4.801c-0.361,1.568-1.363,4.153-2.365,5.365
	c-1.538,1.86-3.643-0.676-5.212-1.979c-3.22-2.673-5.606-2.64-9.76-3.059c-4.117-0.415-7.851,0.215-11.704,1.083
	c-3.156,0.71-7.837,0.31-11,1c-3.475,0.758-8.241,2.732-11,4.887c-1.765,1.378-0.953,3.68-2.588,5.189
	c-0.699,0.646-0.667,1.153-1.94,0.78c-1.103-0.323-3.654-2-4.222-2.855c-2.117-3.191-3.969-7.058-0.917-10.745
	c1.453-1.755,2.386-3.181,4.167-4.598c1.831-1.456,4.257-3.157,5.712-5.036c1.105-1.428,2.755-3.159,3.333-4.867
	c0.555-1.638,0.288-3.604,0.288-5.337"/>
<path fill="none" stroke="#000000" stroke-miterlimit="10" d="M93.5,163c-4.419-0.933-10.611-8.678-8.999-13.494
	c1.576-4.707,7.006-6.327,11.459-6.505c9.57-0.382,18.007,6.69,13.04,16.499"/>
<path fill="#878787" d="M93.833,162.833c-0.274-0.499-0.002-4.568,0.488-5.138c0.818-0.952,3.492-0.917,4.67-1.029
	c1.564-0.149,2.656,0.854,4.259,1.083c1.555,0.222,4.532,1.046,6.046,0.586c2.392-0.726,0.968-7.625-0.176-8.994
	c-2.217-2.654-5.437-5.414-8.871-6.092c-2.808-0.554-7.247-0.146-9.75,1c-2.693,1.233-5.067,2.302-6,5.5
	c-1.485,5.089,2.656,13.764,8.833,13.083"/>
<path fill="none" stroke="#79BA70" stroke-miterlimit="10" d="M89.75,171.25c3.417-1.145,6.257-3.859,9.822-5.048
	c0.618-0.206,2.701-1.323,6.94-2.214c3.657-0.768,7.456-0.988,11.237-0.988"/>
<ellipse fill="#C1C1C0" stroke="#000000" stroke-miterlimit="10" cx="172.295" cy="268.589" rx="18.958" ry="17.667"/>
<path fill="#B358A2" stroke="#000000" stroke-miterlimit="10" d="M273.333,194.338c0.01-1.837,0.109-3.669,0.184-5.503
	c0.477,0.31,0.916,0.8,1.292,1.167c0.107-1.956-0.314-4.094,0.679-5.825c0.879,0.463,0.459,1.577,1.351,1.998
	c0.633-1.238,3.17-2.061,4.48-1.978c-0.615,0.652-1.399,1.463-1.464,2.458c2.293,0.09,3.374-0.555,5.661,0.351
	c-0.532,0.494-2.439,1.021-2.502,1.838c-0.104,1.344,3.15,3.223,3.131,4.976c-2.695,0.271-4.853-1.587-7.481-1.631
	c0.63,0.718,1.108,1.592,1.754,2.291c-3.155,0.27-5.906-1.313-9.084-1.308"/>
<path fill="#B358A2" stroke="#000000" stroke-miterlimit="10" d="M273.893,194.261c1.54-1.132,2.783-2.946,4.979-3.406
	c-0.08,0.369,0.126,0.801-0.23,1.269c0.798-0.472,5.745-1.691,3.883,0.193c1.627-0.445,3.688,0.532,5.239,0.951
	c-1.057,0.583-2.377,1.403-3.524,1.58c1.6-0.12,2.333,1.414,2.639,2.753c-3.97,0.47-7.93-1.515-11.736-1.907"/>
<path fill="#B358A2" stroke="#000000" stroke-miterlimit="10" d="M269.167,192.338c0.477-1.53-0.855-3.5,0.163-5.32
	c0.165,0.169,0.693,0.329,0.85,0.481c0.475-1.468,1.331-2.726,1.981-4.078c0.598,0.562,0.288,1.589,0.394,2.4
	c1.009,0.087,1.824-0.966,2.932-0.961c-0.399,0.813-0.903,1.675-0.964,2.581c1.163,0.146,2.45,0.022,3.646,0.089
	c-0.823,0.703-2.558,1.307-3.117,2.283c0.657,0.175,1.371,0.199,2.031,0.483c-2.618,1.589-5.175,2.946-6.75,5.708"/>
<path fill="#B358A2" stroke="#000000" stroke-miterlimit="10" d="M269.333,196.838c-1.29-1.605-2.976-3.594-4.794-4.641
	c0.799-0.046,1.654-0.077,2.427,0.087c-2.015-1.479-4.532-2.456-5.915-4.596c1.412-0.216,2.694,0.584,3.798,1.307
	c0.19-1.409-0.909-3.418-0.823-5.135c1.19,0.095,3.227,3.227,3.75,4.288c-0.768-0.411-0.506-1.858,0.049-2.56
	c1.868,0.843,0.563,3.696,3.521,2.409c0.703,1.874-1.037,4.823,0.152,6.327c0.999-0.558,1.603-1.527,2.821-1.798
	c-1.656,2.081-3.647,4.256-5.151,6.478"/>
<path fill="#5B8952" d="M143.833,194.833c0,2.427-0.095,4.89,0.021,7.308c1.807,0.096,4.291-0.377,5.757,0.563
	c-1.404-3.211-0.334-7.941-5.112-8.372"/>
<path fill="#5B8952" d="M98.333,195c-4.239-0.002-7.88,1.966-11.008,4.829c-1.447,1.325-1.41,3.058-1.026,4.833
	c0.238,1.104,0.283,3.454,0.773,4.391c0.738,1.412,1.04,0.607,2.375-0.36c1.552-1.124,3.139-2.12,4.968-2.733
	c2.187-0.733,4.222-1.041,6.515-1.475c-0.063-1.444-0.829-2.679-0.894-4.142c-0.069-1.551,0.122-3.41-0.871-4.675"/>
<path fill="#B358A2" stroke="#000000" stroke-miterlimit="10" d="M274,197.505c0.987-0.318,1.732-1.149,2.574-1.694
	c1.022-0.663,2.202-0.883,3.242-1.547c-0.002,0.779-0.376,1.51-0.783,2.205c2.351-0.187,5.68,0.747,7.935,1.329
	c-0.829,0.176-1.508,0.517-2.305,0.876c1.143,0.604,2.147,2.222,2.657,3.306c-0.936,0.021-2.058-0.823-2.927-1.155
	c0.75,0.948,1.284,3.261,1.381,4.343c-2.521-1.643-3.814-4.613-7.102-5.274c0.591,0.641,1.067,1.354,0.814,2.383
	c-2.28,0.588-2.912-3.802-5.487-3.771"/>
<path fill="#B358A2" stroke="#000000" stroke-miterlimit="10" d="M265.65,195.91c-0.796-0.855-1.69-1.675-2.325-2.669
	c0.987,0.078,1.426,0.791,2.423,0.839c-2.376-2.127-3.935-4.709-6.188-6.938c2.024,0.335,3.49,2.591,5.416,3.335
	c0.008-0.818-0.508-1.486-0.689-2.273c1.377,0.567,2.727,2.435,3.604,3.812c0.486-0.639,1.061-1.427,1.837-1.59
	c-0.136,0.626-0.308,1.531-0.185,2.158c0.176,0.892,1.461,1.623,1.55,2.282c0.205,1.53-1.519,3.106-1.489,4.842
	c-1.196-0.262-2.337-2.116-3.648-2.721"/>
<path fill="#B358A2" stroke="#000000" stroke-miterlimit="10" d="M270.333,195.505c0.554-0.691,0.41-1.958,0.222-2.82
	c0.846,0.045,1.469,0.64,2.252,0.798c0.169-1.235-0.13-2.633-0.923-3.618c0.999-0.126,1.679,1.012,2.591,1.285
	c-0.008-0.806-0.03-1.727,0.697-2.14c0.714,0.582,0.925,1.784,1.657,2.174c0.552,0.294,1.978-0.029,2.62,0.022
	c-1.011,0.574-2.007,1.138-1.668,2.104c0.164,0.466,2.583,1.955,3.046,2.336c-1.27,0.111-2.932-0.568-4.16-0.454
	c0.56,0.119,1.375,1.606,1.782,1.899c-1.465,0.602-4.549,0.35-5.261,2.071c-0.211,0.51,0.319,1.813-0.177,2.153
	c-0.479,0.328-2.893-1.134-3.36-1.316"/>
<path fill="#C1C1C0" stroke="#000000" stroke-miterlimit="10" d="M219.478,232.518c-1.585,3.346-4.905,5.649-8.744,5.649
	c-5.375,0-9.733-4.516-9.733-10.083c0-5.57,4.358-10.084,9.733-10.084c4.031,0,7.49,2.538,8.968,6.158"/>
<path fill="#C1C1C0" stroke="#000000" stroke-miterlimit="10" d="M219.397,224.967c1.55-3.115,4.91-5.272,8.808-5.272
	c5.367,0,9.72,4.094,9.72,9.145c0,5.05-4.353,9.145-9.72,9.145c-4.016,0-7.463-2.292-8.945-5.56"/>
<path fill="none" stroke="#000000" stroke-miterlimit="10" d="M87.054,283.298c-4.007,9.207-7.394,14.951-10.889,24.12
	c-0.356,0.935,0.396-1.103,0,0"/>
<path fill="none" stroke="#000000" stroke-miterlimit="10" d="M87.811,189.052c-3.445,9.396,0.183,22.133,1.799,30.728
	c2.772,14.744,7.523,32.3,3.407,47.599c-0.669,2.487-0.45,3.302-1.367,5.777"/>
<path fill="none" stroke="#000000" stroke-miterlimit="10" d="M134.975,323.106c0.188-0.358,0.375-0.72,0.559-1.083
	c3.983-7.858,7.014-16.933,10.488-25.665c4.377-11.005,5.021-22.539,7.806-34.15c5.051-21.056,3.117-48.857-7.704-67.854
	c-3.76-6.601-11.776-11.933-20.776-14.912"/>
<path fill="none" stroke="#000000" stroke-miterlimit="10" d="M132.321,327.704c0.563-0.884,0.549-0.998,1.075-1.928"/>
<path fill="none" stroke="#000000" stroke-miterlimit="10" d="M262.167,276.877c2.444,3.2,3.776,5.752,6.03,9.184"/>
<path fill="none" stroke="#000000" stroke-miterlimit="10" d="M197.333,302.198c-1.735-4.886-2.636-8.76-3.698-13.821
	c-1.922-9.158-3.428-18.925-3.428-28.307c0-0.45,0-0.901,0-1.352v1.352c-2.028-4.843-0.479-33.877,1.389-40.558
	c3.961-14.16,17.454-17.984,30.678-15.768c8.816,1.478,13.97,4.496,19.228,11.928c2.628,3.714,3.204,5.886,4.132,10.29
	c1.424,6.759,1.39,14.147,2.886,20.682c1.219,5.325,1.307,10.966,3.345,16.087c1.404,3.525,2.929,5.945,5.352,8.992"/>
<path fill="none" stroke="#000000" stroke-miterlimit="10" d="M189.082,249.136c2.198-6.786-8.577-12.624-14.187-13.549
	c-8.94-1.474-18.379,2.547-19.085,10.996c-0.839,10.048-3.89,26.961-6.615,39.381c-2.999,13.667-14.142,28.496-6.603,42.626
	c3.955,7.412,12.122,12.576,20.472,13.398c8.555,0.843,14.64-1.089,22.278-4.759c7.507-3.607,10.51-11.265,11.974-18.897
	c0.787-4.103,0.626-8.827-0.641-12.674c-1.538-4.669-1.623-9.647-2.89-14.375c-1.274-4.756-2.282-9.529-2.71-14.515
	c-0.605-7.029-1.993-27.633-2.663-32.793"/>
<ellipse fill="#C1C1C0" stroke="#000000" stroke-miterlimit="10" cx="172.333" cy="265.604" rx="18" ry="17.667"/>
<ellipse fill="#EFEFEF" stroke="#000000" stroke-miterlimit="10" cx="172.295" cy="265.271" rx="14.372" ry="13.27"/>
<path fill="#D6D6D6" stroke="#000000" stroke-miterlimit="10" d="M220.433,223.349c1.184-3.684,4.645-6.35,8.73-6.35
	c5.063,0,9.167,4.094,9.167,9.145c0,5.05-4.104,9.145-9.167,9.145c-4.37,0-8.027-3.052-8.945-7.135l-0.069-0.169
	c-0.854,4.168-4.551,7.304-8.981,7.304c-5.063,0-9.167-4.095-9.167-9.145c0-5.051,4.104-9.145,9.167-9.145
	c4.276,0,7.87,2.921,8.882,6.873L220.433,223.349z"/>
<ellipse fill="#EAEAE5" stroke="#000000" stroke-miterlimit="10" cx="229.164" cy="226.143" rx="6.174" ry="6.456"/>
<ellipse fill="#EAEAE5" stroke="#000000" stroke-miterlimit="10" cx="211.167" cy="226.143" rx="6.13" ry="6.456"/>
<path fill="none" stroke="#000000" stroke-miterlimit="10" d="M265.334,228.663c0,9.582-1.082,18.933-4.027,28.028
	c-1.398,4.319-2.266,9.047-3.573,13.569c-0.996,3.445-2.7,6.576-4.066,10.069"/>
<path fill="none" stroke="#000000" stroke-miterlimit="10" d="M270.334,229.996c0.308,4.263-0.79,9.519-1.666,13.667
	c-0.942,4.463-1.003,9.022-1.76,13.693c-1.623,10.022-5.138,20.032-6.241,30.307"/>
<path fill="#EAEAEA" d="M265,239.004c0.957,0.424,2.418,1.415,3.491,1.166c1.122-0.261,1.567-1.988,1.841-3.129
	c0.561-2.348,0.362-5.543-0.49-7.638c1.86-0.298,2.816-2.032,2.287-3.862c-0.464-1.605-2.962-2.404-2.771-3.907
	c0.125-0.985,2.187-0.854,1.979-2.096c-0.173-1.029-1.869-1.466-2.845-1.664c-1.609-0.326-3.546-0.227-4.521,0.972
	c-0.984,1.208-2.668,3.434-2.306,5.195c0.379,1.846,2.563,3.018,3.132,4.796c0.418,1.31,0.265,3.522,0.463,4.843
	c0.222,1.474,0.074,3.135,0.074,4.657"/>
<path fill="none" stroke="#000000" stroke-miterlimit="10" d="M265,228.33c-3.264-2.32-4.471-7.881,0.351-8.334
	c0.772-0.072,2.286-0.229,3.011-0.052c0.327,0.08,2.288,1.631,1.952,1.696c-2.603,0.509-4.71,1.095-3.979,4.022"/>
<path fill="#848484" stroke="#000000" stroke-miterlimit="10" d="M269.321,208.846c1.576,1.229,4.501-3.629,4.657-4.806
	c0.208-1.563-1.182-2.104-2.707-2.701c-1.042-0.408-2.706-0.981-3.314,0.383C267.355,203.069,268.101,207.894,269.321,208.846z"/>
<path fill="none" stroke="#000000" stroke-miterlimit="10" d="M264.333,219.334c0.707-1.608,3.083-1.935,4.668-1.466
	c0.746,0.221,2.169,1.008,2.335,1.67c0.197,0.789-0.563,1.943-1.336,2.129"/>
<path fill="none" stroke="#000000" stroke-miterlimit="10" d="M264.833,218.667c-0.429,0.227-1.509,1.654-1.612,2.091"/>
<path fill="none" stroke="#000000" stroke-miterlimit="10" d="M264.333,228.334c0.424,0.028,0.839,0.209,1.167,0.5"/>
<path fill="#B358A2" stroke="#000000" stroke-miterlimit="10" d="M268.167,200.838c-1.209-1.134-2.72-2.044-4.283-2.462
	c0.8-0.063,1.648-0.024,2.462-0.062c-1.397-1.307-3.415-2.167-4.291-3.954c1.831,0.107,3.549,1.46,5.216,2.136
	c0.011-1.169,0.72-2.108,1.371-3.073c0.066,1.107-0.011,2.293,0.06,3.414c0.334-0.508,0.963-0.84,1.61-0.985
	c-0.147,1.57,0.005,5.233-1.979,4.82"/>
<path fill="#B358A2" stroke="#000000" stroke-miterlimit="10" d="M272.333,201.505c-0.375-1.825,3.188-3.966,4.572-4.438
	c-0.521,0.813-0.619,1.828-1.151,2.604c1.673-1.479,4.084-1.719,6.244-1.437c-0.392,0.572-1.244,0.951-1.672,1.575
	c2.495,0.235,6.242,4.674,6.277,7.183c-1.175-0.361-2.216-1.798-3.245-2.489c-0.127,2.718-0.073,5.113-1.833,7.426
	c-1.057-2.983,0.127-5.115-2.833-7.246c0.058,1.26-0.259,3.013-0.826,4.118c-0.109-1.652,0.278-3.611-1.183-4.835
	C275.445,202.928,273.629,202.766,272.333,201.505"/>
<path fill="none" stroke="#000000" stroke-miterlimit="10" d="M265.333,228.836c0,2.22,0.024,4.217-0.533,6.342
	c-0.567,2.166-0.43,3.995,2.384,4.51c2.737,0.5,2.518-0.675,2.854-2.86c0.27-1.75,0.297-5.008,0.297-6.831"/>
<path fill="none" stroke="#000000" stroke-miterlimit="10" d="M203.049,308.155c4.844,1.414,11.734,1.44,13.451,1.523
	c5.372,0.261,6.75-0.257,12.167-0.989c-2.229,4.043,0.573,8.602,3.992,10.67c3.705,2.242,8.316,2.563,12.655,1.943
	c2.556-0.365,5.146-1.879,7.555-2.663c1.867-0.608,4.235-1.662,5.472-3.26c2.326-3.006-0.251-8.344-2.878-10.224
	c-1.97-1.41-4.047-2.825-6.042-4.32c1.142-1.391,2.998-2.047,4.408-3.117c1.672-1.268,3.378-2.796,5.167-3.85
	c1.711-1.008,9.795-4.718,8.504-7.362"/>
<path fill="none" stroke="#000000" stroke-miterlimit="10" d="M267.333,285.84c-1.511,0.531-3.512,2.598-4.87,3.662
	c-1.84,1.442-3.737,2.685-5.703,3.967c-4.535,2.957-9.23,5.283-14.383,7.071c-3.109,1.079-6.046,2.499-9.164,3.467
	c-2.454,0.762-4.958,1.188-7.49,1.656c-5.086,0.942-11.093,2.072-16.353,1.307c-1.777-0.259-2.352-0.229-4.386-0.504"/>
<path fill="none" stroke="#000000" stroke-miterlimit="10" d="M255.284,296.725c0.52,1.712,0.135,3.055,1.874,3.459
	c1.3,0.303,2.399,0.488,3.667,0.954c1.134,0.416,3.283,0.914,3.515,2.18c0.161,0.878-1.359,3.051-2.015,3.542
	c1.673,1.365,3.383,1.254,4.851,3.166c1.09,1.421,1.27,3.099,0.824,4.838c-1.08,4.217-5.676,5.476-9.483,5.513
	c-0.148,3.395-0.619,7.911-5.008,7.645c-1.627-0.099-3.191-0.631-4.667-1.246c-1.225-0.51-2.671-1.605-4.029-1.412
	c0.783,3.448-4.99,5.562-7.637,5.325c-2.228-0.199-7.187-2.828-6.484-5.746c-1.737,2.347-7.133,1.697-7.99-1.087
	c-0.58-1.883-0.22-5.678,0.282-7.516c-1.264-0.323-4.023-1.715-4.661-2.947c-0.395-0.762-0.451-3.313,0.511-3.037"/>
<path fill="none" stroke="#000000" stroke-miterlimit="10" d="M225.5,310.848c-0.125,0.696-0.235,1.442-0.167,2.167"/>
<path fill="none" stroke="#000000" stroke-miterlimit="10" d="M225.5,315.682c0.499,0.335,0.843,0.941,1.167,1.5"/>
<path fill="none" stroke="#000000" stroke-miterlimit="10" d="M252.5,300.848c0.58,0.371,1.2,0.828,1.667,1.334"/>
<path fill="none" stroke="#000000" stroke-miterlimit="10" d="M228.5,319.015c0.529,0.066,0.923,0.449,1.167,1"/>
<path fill="none" stroke="#000000" stroke-miterlimit="10" d="M256,303.682c0.423-0.249,0.95-0.01,1.333,0.5"/>
<path fill="none" stroke="#000000" stroke-miterlimit="10" d="M231.333,321.182c0.733-0.133,1.41,0.265,1.834,0.833"/>
<path fill="none" stroke="#000000" stroke-miterlimit="10" d="M258.667,305.796c-0.044,0.331,0.013,0.648,0.166,0.938"/>
<path fill="none" stroke="#000000" stroke-miterlimit="10" d="M235.667,323.348c0.833,0,1.667,0,2.5,0"/>
<path fill="none" stroke="#000000" stroke-miterlimit="10" d="M260,308.348c0.259,0.911,0.16,1.886,0.333,2.834"/>
<path fill="none" stroke="#000000" stroke-miterlimit="10" d="M241.833,323.591c1.079,0.039,2.104,0.018,3-0.5"/>
<path fill="none" stroke="#000000" stroke-miterlimit="10" d="M260,313.182c0.267-0.042,0.226,0.465,0.167,1"/>
<path fill="none" stroke="#000000" stroke-miterlimit="10" d="M248.5,322.182c0.688,0.002,1.324-0.085,2-0.167"/>
<path fill="none" stroke="#000000" stroke-miterlimit="10" d="M259.667,316.515c-0.536-0.063-0.829,0.56-1,1.167"/>
<path fill="none" stroke="#000000" stroke-miterlimit="10" d="M256.667,319.682c-0.254-0.069-0.49-0.015-0.667,0.166"/>
<path fill="none" stroke="#000000" stroke-miterlimit="10" d="M252.667,321.848c0.317-0.567,0.856-0.961,1.5-1.166"/>
<path fill="none" stroke="#000000" stroke-miterlimit="10" d="M251.833,263.181c-1.527,4.158-3.941,7.759-5.958,11.634
	c-2.069,3.977-4.271,6.842-7.819,9.492c-3.382,2.526-7.231,4.123-11.148,5.62c-5.889,2.251-12.337,2.464-18.518,1.059
	c-1.727-0.393-3.591-0.801-5.265-1.529c-0.84-0.366-1.462-0.492-2.377-1.146c-1.116-0.796-2.424-1.555-3.58-2.264
	c-1.638-1.006-3.009-1.964-4.501-3.199"/>
<path fill="none" stroke="#000000" stroke-miterlimit="10" d="M254.667,268.181c-2.132,4.398-3.047,8.392-3,13.342
	c0.021,2.13,0.232,4.026,1.037,5.899c0.748,1.741,1.495,5.187,3.463,5.593"/>
<path fill="#D3D3D3" stroke="#000000" stroke-miterlimit="10" d="M223.5,289.181c-2.862-0.084-6.389,0.661-8.663,2.454
	c-1.107,0.873-2.26,2.221-1.516,3.704c0.474,0.943,1.653,1.005,2.162,1.851c0.404,0.673,0.085,1.49,0.054,2.251
	c-0.068,1.682,0.43,2.922,2.472,2.74c1.662-0.148,2.85-2.337,3.832-3.574c2.285-2.875,2.659-4.781,2.659-8.426"/>
<path fill="#D3D3D3" stroke="#000000" stroke-miterlimit="10" d="M229.333,291.848c1.395-0.418,3.072,2.401,3.838,3.454
	c1.3,1.788,1.937,2.113,4.137,2.021c0.063-0.865,0.391-1.885,0.201-2.771c-0.181-0.844-1.529-1.854-1.32-2.705
	c0.255-1.029,2.018-1.215,2.352-2.333c0.498-1.67-0.505-1.842-1.91-1.999c-1.525-0.171-3.799-0.287-5.288,0.037
	c-1.701,0.37-2.178,2.962-2.009,4.629"/>
<path fill="#D3D3D3" stroke="#000000" stroke-miterlimit="10" d="M224.833,292.181c-0.136,3.611-1.091,7.225-2.149,10.68
	c0.809,0.641,1.759,0.463,2.753,0.499c-0.512-1.504,1.119-2.827,2.038-1.257c0.111-2.113,0.134-9.095-2.308-9.755"/>
<path fill="#D3D3D3" stroke="#000000" stroke-miterlimit="10" d="M229.167,292.348c-0.637-0.605-1.807-0.673-2.512,0.158
	c-1.043,1.229,0.228,2.226,0.853,3.184c1.252,1.92,1.56,4.328,2.667,6.278c-0.027-1.934-0.011-3.577,2.311-3.775
	c-0.753-1.145-1.593-2.186-2.152-3.475c-0.44-1.014-0.539-3.039-2-3.037"/>
<path fill="none" stroke="#000000" stroke-miterlimit="10" d="M225.833,301.515c-0.043-1.48,0.167-2.826,0.167-4.334"/>
<path fill="#D3D3D3" stroke="#000000" stroke-miterlimit="10" d="M223.167,289.681c1.301,0.166,7.816-3.949,6.678,1.004
	c-0.282,1.229-2.749,2.391-4.002,2.166c-2.253-0.405-0.777-2.671-2.343-3.836"/>
<path fill="none" stroke="#000000" stroke-miterlimit="10" d="M232.675,349.438c0,1.58-0.494,1.86-0.41,3.337
	c0.111,1.976,1.619,2.167,3.5,1.833c3.819-0.679,4.707-4.554,5.374-8.008c0.121-0.627,0.169-0.621,0.193-1.268"/>
<path fill="none" stroke="#000000" stroke-miterlimit="10" d="M276.356,329.324c1.442,0.067,1.494-0.234,2.929-0.094
	c1.362,0.135,3.175,0.761,4.638,0.367c1.101-0.296,4.056-2.325,3.649-3.679c-0.197-0.657-1.385-1.209-2.515-1.627"/>
<path fill="#131313" stroke="#000000" stroke-miterlimit="10" d="M232.675,353.859c-2.354-0.305-4.582,4.234-3.349,6.511
	c1.217,2.248,5.282,1.602,7.347,1.646c2.572,0.055,4.098-0.853,4.091-3.746c-0.005-1.941,0.116-3.753-1.981-4.242
	c-1.498-0.35-3.774,1.135-5.019,0.08"/>
<path fill="#131313" stroke="#000000" stroke-miterlimit="10" d="M284.757,329.914c1.439-0.678,5.873,2.154,7.74,2.37
	c1.3,0.15,3.126,0.699,4.263-0.029c1.074-0.688,1.529-2.801,1.497-4.007c-0.097-3.558-3.845-3.855-6.658-4
	c-1.668-0.085-2.79,0.063-4.087,1.163C286.138,326.575,286.083,328.481,284.757,329.914"/>
<path fill="none" stroke="#000000" stroke-miterlimit="10" d="M200.507,310.155c0.838,1.986,0.694,3.049,1.214,5.01
	c0.826,3.117,1.431,6.225,2.229,9.391c0.894,3.545,3.03,16.061,0.301,18.944"/>
<path fill="none" stroke="#000000" stroke-miterlimit="10" d="M267.75,285.25c4.276,4.22,7.542,8.932,9.883,14.633
	c1.961,4.775,6.951,12.441,12.867,12.367"/>
<path fill="none" stroke="#000000" stroke-miterlimit="10" d="M205.75,340.5c-2.062-0.062-5.416,1.238-7.249,2.201
	c-2.917,1.533-2.063,4.6,1.055,5.61c5.604,1.816,10.25-2.243,15.457-2.81c6.271-0.682,10.946,4.765,17.305,2.205
	c5.766-2.32,9.283-7.69,15.938-6.957c2.514,0.277,5.05,1.668,7.506,2.145c3.133,0.607,5.132-1.163,7.494-2.906
	c2.641-1.95,5.341-3.522,7.033-6.438c1.365-2.353,3.029-5.953,5.698-7.237c1.298-0.624,2.669-0.417,3.999-0.806
	c2.228-0.65,2.125-1.284,3.215-3.282c1.484-2.723,3.29-5.777,6.192-6.979c1.913-0.792,6.379-3.045,3.417-5.775
	c-1.744-1.608-5.364,0.044-7.061,0.78"/>
<path fill="none" stroke="#000000" stroke-miterlimit="10" d="M202.834,340.84c-2.723,0.629-8.053,1.149-8.333,4.991
	c-0.2,2.747,2.93,5.079,5.337,5.175c3.706,0.146,6.545-0.396,9.959-1.339c2.926-0.809,6.579-1.988,9.875-1.031
	c2.082,0.604,3.792,1.611,5.958,1.702c1.54,0.065,3.167,0.097,4.705,0.001c4.157-0.258,8.164-2.27,11.34-4.87
	c1.895-1.551,2.89-1.702,5.289-1.334c1.949,0.299,3.574,1.235,5.463,1.5c10.004,1.4,16.345-6.758,21.703-13.791
	c1.135-1.489,1.891-2.889,3.492-3.959c1.399-0.937,3.355-1.301,4.833-1.888c5.061-2.01,5.502-8.353,10.208-10.569
	c1.064-0.501,2.691-0.701,3.271-1.931c1.386-2.936-1.994-4.43-4.268-4.491"/>
<path fill="none" stroke="#000000" stroke-miterlimit="10" d="M196.333,209.667c-1.964-1.778-6.534-2.489-9.259-3.417
	c-4.714-1.604-3.352-5.154,0.934-6.249c3.237-0.826,7.142,0.016,9.566-2.485c3.097-3.194,2.493-7.978,8.11-8.523
	c3.786-0.368,6.502,2.62,10.331,1.265c3.649-1.291,6.057-3.851,10.311-3.257c5.025,0.701,5.865,4.63,9.682,7.082
	c3.876,2.489,9.438,1.771,13.668,4.002c3.8,2.004,7.263,6.944,3.584,10.201c-2.76,2.442-9.1,4.972-12.729,6.066"/>
<path fill="none" stroke="#000000" stroke-miterlimit="10" d="M195.333,203.667c3.268,0.499,5.671,2.126,8,4.333"/>
<path fill="none" stroke="#000000" stroke-miterlimit="10" d="M206.667,199.333c1.903,1.99,1.648,6.802,3.667,9.333"/>
<path fill="none" stroke="#000000" stroke-miterlimit="10" d="M216.667,208.667c0.109-2.781,3.736-7.641,6.333-8.667"/>
<path fill="none" stroke="#000000" stroke-miterlimit="10" d="M228.667,208.333c3.527-2.983,7.259-7.564,12.333-8"/>
<path fill="none" stroke="#000000" stroke-miterlimit="10" d="M236,213c-0.208-3.49,4.317-3.896,6.667-5"/>
<path fill="none" stroke="#000000" stroke-miterlimit="10" d="M190.333,230c2.336-2.681,8.139-5.563,11.667-5.854"/>
<path fill="none" stroke="#000000" stroke-miterlimit="10" d="M203.094,234.319c-3.339-0.658-12.181,2.913-13.843,5.723"/>
<path fill="none" stroke="#000000" stroke-miterlimit="10" d="M235.338,235.035c4.821,0.22,9.921,0.972,12.104,5.007"/>
<path fill="none" stroke="#000000" stroke-miterlimit="10" d="M246.382,230.424c-1.463-2.942-5.84-2.924-8.549-3.261"/>
<path fill="#262626" stroke="#000000" stroke-miterlimit="10" d="M219.5,268.475c-2.221-0.512-4.841-0.466-5.995-2.639
	c-0.674-1.268-1.145-3.993-0.671-5.49c1.181-3.739,6.399,1.941,8.872,0.767c1.462-0.695,3.295-3.966,5.095-2.149
	c0.958,0.968,0.644,3.587,0.153,4.677c-1.583,3.523-4.203,4.51-7.787,4.835"/>
<path fill="none" stroke="#000000" stroke-miterlimit="10" d="M144.667,300.351c2.518,0.198,5.131,1.92,7.586,2.715
	c2.002,0.648,4.238,0.67,6.32,0.859c3.116,0.283,7.886,0.26,11.093,0.26"/>
<path fill="none" stroke="#000000" stroke-miterlimit="10" d="M182.167,302.351c2.438-0.011,4.858-0.411,7.24-0.908
	c1.579-0.329,4.679-0.659,5.912-1.759"/>
<path fill="#4D90CD" stroke="#000000" stroke-miterlimit="10" d="M140,318.517c1.316,0.987,4.323,0.891,6.037,1.204
	c1.667,0.305,3.226,0.411,4.937,0.484c0.226,4.862-1.429,10.247-6.97,10.811c-3.229,0.329-4.001-3.22-4.337-5.674
	C139.477,323.946,138.825,319.471,140,318.517"/>
<path fill="#4D90CD" stroke="#000000" stroke-miterlimit="10" d="M189,318.851c1.479-0.188,3.427,0.329,5.037,0.333
	c1.546,0.003,2.912-0.676,4.363-0.438c-0.659,3.02-0.58,5.969-1.941,8.774c-1.173,2.418-4.401,5.577-7.284,3.998
	c-2.635-1.442-2.009-5.62-2.009-8.159c0-0.894-0.342-2.953,0.201-3.674c0.633-0.842,2.237-0.502,3.299-0.502"/>
<path fill="none" stroke="#000000" stroke-miterlimit="10" d="M139.833,318.517c-1.06-2.226,0.843-10.012,4.037-10
	c3.821,0.015,3.296,8.252,3.296,10.834"/>
<path fill="none" stroke="#000000" stroke-miterlimit="10" d="M191.622,315.412c-0.524,0.931-1.164,2.24-1.122,3.271"/>
<path fill="none" stroke="#000000" stroke-miterlimit="10" d="M197.333,319.184c0.01-1.84,0.397-3.36,0.5-5.163
	c0.052-0.915-0.029-1.519-0.303-1.917"/>
<path fill="none" stroke="#000000" stroke-miterlimit="10" d="M174.833,341.017c2.407,2.071,2.37,6.311,4.492,8.666
	c2.611,2.899,5.128,3.29,8.187,1.506c-1.424-1.743-4.078-3.171-4.812-5.412c-0.684-2.09-0.973-4.681-1.2-6.926"/>
<path fill="none" stroke="#000000" stroke-miterlimit="10" d="M180.474,350.794c-1.524,3.558,3.262,3.882,5.9,4.699
	c1.371,0.425,3.505,0.972,3.986-0.992c0.42-1.714-1.841-2.82-3.05-3.607"/>
<path fill="none" stroke="#000000" stroke-miterlimit="10" d="M161.845,352.442c-2.482-0.326-6.846,4.462-2.771,5.695
	c1.647,0.498,3.872,0.192,5.406-0.403c2.664-1.035,2.68-2.15,2.687-4.884"/>
<path fill="none" stroke="#000000" stroke-miterlimit="10" d="M171.5,230.156c-0.166,1.835,0.667,3.872,0.667,5.833"/>
<path fill="none" stroke="#000000" stroke-miterlimit="10" d="M165.667,232.156c-0.056,0.496,1.158,1.923,1.528,2.629
	c0.629,1.198,1.399,2.319,1.639,3.704"/>
<path fill="none" stroke="#000000" stroke-miterlimit="10" d="M161.5,235.656c1.924,1.569,2.476,4.438,2.5,6.833"/>
<path fill="none" stroke="#000000" stroke-miterlimit="10" d="M174.5,239.823c-0.04-1.625,0.288-3.868,1.833-5"/>
<path fill="none" stroke="#000000" stroke-miterlimit="10" d="M181.5,232.656c-0.829,2.763-2.73,4.838-2.667,8"/>
<path fill="none" stroke="#000000" stroke-miterlimit="10" d="M185,238.823c-1.463,1.313-2.762,3.698-2.833,5.666"/>
<path fill="none" stroke="#000000" stroke-miterlimit="10" d="M158.333,236.156c-0.412,1.059,1.46,2.2,1.5,3.5"/>
<path fill="#C1C1C0" stroke="#000000" stroke-miterlimit="10" d="M121.019,203.393c-1.938,3.899-6,6.585-10.696,6.585
	c-6.575,0-11.906-5.262-11.906-11.75c0-6.492,5.332-11.751,11.906-11.751c4.931,0,9.162,2.958,10.97,7.176"/>
<path fill="#C1C1C0" stroke="#000000" stroke-miterlimit="10" d="M120.921,194.594c1.896-3.63,6.006-6.144,10.773-6.144
	c6.565,0,11.89,4.771,11.89,10.656c0,5.885-5.324,10.657-11.89,10.657c-4.912,0-9.129-2.672-10.942-6.479"/>
<path fill="#D6D6D6" stroke="#000000" stroke-miterlimit="10" d="M122.188,192.708c1.448-4.292,5.681-7.399,10.679-7.399
	c6.193,0,11.213,4.771,11.213,10.657c0,5.884-5.021,10.657-11.213,10.657c-5.346,0-9.819-3.558-10.942-8.315l-0.085-0.197
	c-1.044,4.857-5.566,8.512-10.986,8.512c-6.192,0-11.213-4.773-11.213-10.657c0-5.886,5.021-10.657,11.213-10.657
	c5.231,0,9.627,3.404,10.864,8.009L122.188,192.708z"/>
<ellipse fill="#EAEAE5" stroke="#000000" stroke-miterlimit="10" cx="132.867" cy="195.964" rx="7.552" ry="7.524"/>
<ellipse fill="#EAEAE5" stroke="#000000" stroke-miterlimit="10" cx="110.854" cy="195.964" rx="7.498" ry="7.524"/>
<path fill="none" stroke="#000000" stroke-miterlimit="10" d="M86.838,201.057c2.61-2.999,9.092-6.224,13.032-6.549"/>
<path fill="none" stroke="#000000" stroke-miterlimit="10" d="M100.964,204.682c-3.339-0.658-12.181,2.912-13.843,5.723"/>
<path fill="none" stroke="#000000" stroke-miterlimit="10" d="M141.781,201.889c3.061,0.14,6.233,0.494,8.701,1.766"/>
<path fill="none" stroke="#000000" stroke-miterlimit="10" d="M146.142,194.211c-0.667-0.069-1.302-0.124-1.866-0.194"/>
<path fill="none" stroke="#000000" stroke-miterlimit="10" d="M94,260.667c1.144-0.259,1.947,0.761,2.759,1.417
	c1.519,1.229,3.057,2.457,4.628,3.665c2.33,1.79,4.388,3.748,6.678,5.575c3.94,3.146,5.757,6.972,11.272,7.508
	c9.62,0.936,17.637-4.188,25.993-8.125c2.073-0.977,4.665-1.928,7.003-1.707"/>
<path fill="none" stroke="#000000" stroke-miterlimit="10" d="M92.667,280.668c1.33-5.157-2.307-8.589-5.167-12.333
	c-1.729-2.262-3.384-4.768-4.507-7.414c-0.965-2.274-2.514-5.038-2.326-7.586"/>
<path fill="none" stroke="#000000" stroke-miterlimit="10" d="M77.333,253.835c0,3.272,0.505,6.28,1.133,9.478
	c0.785,3.999,2.789,7.077,4.5,10.726c1.354,2.887,3.322,6.18,4.087,9.26c0.61,2.459-0.932,4.336-2.22,6.204"/>
<path fill="none" stroke="#000000" stroke-miterlimit="10" d="M97.999,345.932c-0.86,0.98-1.75,0.459-2.128,1.918
	c-0.608,2.346-0.454,3.313,1.637,4.846c3.252,2.383,3.396-0.819,5.363-3.472c1.16-1.563,0.79,0.396,1.16-1.563"/>
<path fill="none" stroke="#000000" stroke-miterlimit="10" d="M75.275,338.51c-1.407-0.357,0,0-0.719,0.91
	c-1.617,2.044-3.56,4.075-3.814,6.786c-0.224,2.386,1.017,4.552,3.095,5.676c1.103-0.695,1.471-2.42,2.159-3.511
	c0.722-1.146,1.41-2.26,2.088-3.351c1.817-2.925,1.098-1.971,4.007-3.235"/>
<path fill="none" stroke="#000000" stroke-miterlimit="10" d="M95.167,349.021c-3.701-0.646-2.559,3.916-0.675,5.211
	c1.373,0.943,1.967,0.804,2.917,2.289c0.875,1.367,1.868,3.3,3.254,4.141c2.547,1.545,6.062,0.255,5.841-2.967
	c-0.192-2.794-3.36-5.588-6.003-5.841"/>
<path fill="none" stroke="#000000" stroke-miterlimit="10" d="M71.167,347.854c-0.981,2.263-3.151,5.555-2.666,8.334
	c0.401,2.3,4.111,2.715,6.162,2.833c2.496,0.144,3.365-0.563,3.134-3.037c-0.19-2.04-1.131-4.572-2.296-6.297"/>
<path fill="none" stroke="#000000" stroke-miterlimit="10" d="M76.833,253.998c-2.749,0.359-6.296-5.906-2.33-6.334
	c0.987-0.106,3.76,0.175,3.971,1.505c0.269,1.689-2.713,0.473-3.475,0.329"/>
<path fill="none" stroke="#000000" stroke-miterlimit="10" d="M80.333,253.331c-0.219-1.857,1.137-5.669-2.475-4.974
	c-0.161,0.917,0.387,1.621,0.641,2.474"/>
<path fill="none" stroke="#000000" stroke-miterlimit="10" d="M73.617,247.911c-0.757-1.253,2.075-2.531,3.059-2.413
	c1.739,0.209,2.563,2.265,0.491,1.833"/>
<path fill="none" stroke="#000000" stroke-miterlimit="10" d="M74.833,244.831c-0.83,0.699,3.019-1.694,3.975-0.854
	c1.239,1.089,0.113,2.893-1.308,2.854"/>
<path fill="none" stroke="#000000" stroke-miterlimit="10" d="M75.78,249.493c-0.682,1.826-0.516,1.322-1.275,3.124"/>
<path fill="none" stroke="#000000" stroke-miterlimit="10" d="M76.957,252.858c1.282-3.23,3.001-6.149,4.168-9.391
	c2.75-7.636,10.946-24.941-2.262-27.306c-4.797-0.858-9.342,3.135-5.992,7.586c1.544,2.052,3.534,3.581,5.139,5.56
	c1.313,1.62,1.388,3.977,1.491,6.025c0.157,3.15-0.918,5.681-2,8.664"/>
<path fill="none" stroke="#000000" stroke-miterlimit="10" d="M74.505,252.617c-1.015,2.407-2.086,4.781-3.18,7.096
	c-1.816,3.842-3.539,7.729-5.427,11.537c-1.928,3.889-3.59,8.106-5.398,12.021c-1.189,2.574-2.837,4.537-4.287,7.037
	c-0.843,1.452-3.675,5.159-2.05,6.825c4.041,4.142,8-7.007,10.147-13.814c0.679-2.155,1.177-3.875,1.438-4.537
	c0.759-1.926,1.969-3.634,2.686-5.573c1.223-3.311,2.773-6.52,4.163-9.763c1.358-3.169,2.836-6.4,3.996-9.625
	c0.117-0.324,0.238-0.645,0.364-0.962"/>
<path fill="none" stroke="#000000" stroke-miterlimit="10" d="M79.5,233.831c-0.139,3.142-3.142,8.989,2.667,8.5"/>
<path fill="#351D25" stroke="#000000" stroke-miterlimit="10" d="M62.333,279.838c-1.674,0.561-2.143,4.401-3.17,5.869
	c-1.489,2.126-3.153,4.499-4.311,6.809c-1.877,3.743-5.193,6.894-6.815,10.817c-0.713,1.726-1.34,3.386,0.925,4.051
	c1.018,0.299,3.964,1.116,4.87,0.92c2.522-0.548,3.408-8.445,4.335-10.675c1.387-3.335,3.326-6.644,4.686-9.965
	c0.729-1.779,0.93-3.438,1.438-5.321c0.292-1.083,0.696-1.507-0.441-2.174c-0.73-0.429-1.997-0.286-2.518,0.336"/>
<path fill="none" stroke="#000000" stroke-miterlimit="10" d="M92.167,270.011c1.938,0.912,3.178,4.648,3.713,6.685
	c0.59,2.246,0.529,4.354-0.306,6.476c-2.218,5.638-6.852,8.007-12.74,8.007"/>
<path fill="none" stroke="#000000" stroke-miterlimit="10" d="M133.396,325.776c2.593,0.295,2.838-1.646,3.203-3.903
	c0.417-2.578,0.842-5.117,2.568-7.192"/>
<path fill="none" stroke="#000000" stroke-miterlimit="10" d="M77.858,303.386c-0.617,2.034-4.397,3.567-2.897,5.757
	c1.468,2.144,5.712,3.11,8.095,3.784c4.387,1.242,8.597,2.998,12.899,4.476c6.562,2.253,13.163,5.17,19.999,6.361
	c5.76,1.004,11.671,1.357,17.442,2.013"/>
<path fill="none" stroke="#000000" stroke-miterlimit="10" d="M75,309c-2.683,8.295-8.686,21.069-0.806,28.486
	c3.244,3.053,7.593,4.994,12.043,5.264c2.597,0.157,4.3,0.343,6.068-1.488c1.632-1.69,3.297-4.302,3.968-6.52
	c-1.065,1.446-2.117,4.416-2.481,6.3c-0.655,3.395,1.333,3.979,4.206,4.89c10.088,3.195,17.668,1.346,25.551-5.439
	c2.451-2.109,4.015-4.382,5.757-6.986c1.111-1.661,3.415-4.271,2.943-6.256"/>
<path fill="none" stroke="#000000" stroke-miterlimit="10" d="M92.5,267.75c5.44,2.675,7.94,13.415,4.751,18.5
	c-2.2,3.508-5.053,6.676-9.495,7c-1.114,0.081-3.543,0.42-4.562-0.001c-2.174-0.898-0.83-2.404,1.306-2.249"/>
<path fill="none" stroke="#000000" stroke-miterlimit="10" d="M92.75,268.5c0.081-0.271,0.008-0.455-0.217-0.556
	c-1.258,0.375-0.823,1.407,0.134,2.396"/>
<path fill="none" stroke="#000000" stroke-miterlimit="10" d="M75.25,305.25c0.007,4.459,10.022,5.896,13.256,7.014
	c2.488,0.86,5.334,1.105,7.738,2.238c2.442,1.15,4.908,2.355,7.548,3.43c9.535,3.878,20.969,5.318,31.458,5.318"/>
<path fill="#262626" stroke="#000000" stroke-miterlimit="10" d="M123.75,252.5c-2.665-1.557-7.442-5.691-8.25-0.774
	c-0.938,5.716,4.829,8.308,9.683,8.524c2.409,0.107,4.882,0.105,6.55-1.807c1.12-1.282,2.43-4.538,2.271-6.37
	c-0.596-6.881-7.34,0.835-9.755,1.177L123.75,252.5z"/>
<path fill="#5B8851" stroke="#000000" stroke-miterlimit="10" d="M108.182,276.889c1.673,0.861-2.729,3.274-3.682,4.111
	c-1.515,1.33-1.737,1.141-1.762,3.259c-0.028,2.455-0.033,6.82,0.355,9.202c2.584,0.182,5.517-3.137,7.379-4.522
	c2.105-1.566,2.086-1.379,2.222-4.4c0.061-1.368,0.292-3.048-0.194-4.288"/>
<path fill="#5B8851" stroke="#000000" stroke-miterlimit="10" d="M144.25,277.75c-0.917,3.416-7.391,6.559-7.28,9.859
	c0.105,3.138,2.672,6.212,2.582,9.621c2.444-2.186,5.789-6.376,6.198-9.543C146.224,284.02,144.395,281.178,144.25,277.75"/>
<path fill="#5B8851" stroke="#000000" stroke-miterlimit="10" d="M102,295.5c-2.581,0.978-4.583,3.068-6.763,4.694
	c-3.063,2.284-1.522,3.179-0.974,6.543c0.197,1.207-0.138,7.094,1.176,7.072c-0.042,0,4.248-4.308,4.73-4.704
	c1.109-0.911,3.396-2.362,3.824-3.611c-2.302-1.085-2.243-6.743-2.243-8.994L102,295.5z"/>
<path fill="#5B8851" stroke="#000000" stroke-miterlimit="10" d="M137.75,301.75c-3.047,0.645-4.781,4.406-7.725,6.488
	c0.792,3.842,2.17,7.754,2.958,11.504c2.016-2.05,5.228-5.538,6.022-8.229C139.776,308.9,137.749,304.71,137.75,301.75"/>
<path fill="#5B8851" stroke="#000000" stroke-miterlimit="10" d="M82.5,294.25c-1.005,2.063,1.651,4.6,1.029,6.262
	c-0.518,1.386-4.911,3.782-6.279,4.988"/>
<path fill="#5B8851" stroke="#000000" stroke-miterlimit="10" d="M124.5,281.75c-1.82,0.781-5.232,4.091-5.773,5.97
	c-0.856,2.972,1.755,6.599,2.256,9.261c1.412-0.554,7.885-4.533,8.534-6.17c0.51-1.287-0.746-3.647-1.016-5.055
	c-0.362-1.883-0.851-3.162-1.5-5.006"/>
<path fill="#5B8851" stroke="#000000" stroke-miterlimit="10" d="M120.75,301.75c-2.787,0.518-5.249,3.121-7.441,4.755
	c-2.406,1.795-1.779,1.805-1.116,4.535c0.712,2.936,0.005,6.839,1.81,9.228c2.668-4.504,6.021-6.678,10.558-8.757
	c-1.977-3.012-2.206-6.812-4.311-9.761"/>
<path fill="#E94B4B" stroke="#000000" stroke-miterlimit="10" d="M77,255.5c0,1.369-0.466,3.416,0.689,4.212
	c0.889,0.613,3.824,0.001,4.573-0.645c1.298-1.119,1.524-3.357-0.207-4.085c-1.259-0.53-3.301,0.594-4.556,0.768"/>
<path fill="#CCCCCC" stroke="#000000" stroke-miterlimit="10" d="M87,190.5c2.027-0.193,3.676-1.847,5.531-2.699
	c3.269-1.501,6.928-2.889,10.4-3.665c3.761-0.841,7.862-1.796,11.637-2.162c3.363-0.326,6.844,0.188,10.225,0.025
	c3.24-0.156,5.529,0.413,8.67,0.727c-4.638-3.16-8.998-2.615-14.311-2.579c-4.275,0.029-8.578,0.69-12.842,1.347
	c-3.627,0.559-6.507,1.392-9.867,2.062c-3.394,0.677-8.832,3.597-9.444,7.694"/>
<path fill="none" stroke="#79BA70" stroke-miterlimit="10" d="M84.5,192c-0.584-4.538,5.874-8.922,9.194-10.756
	c4.151-2.292,9.654-3.893,14.062-4.938c5.369-1.273,11.287-0.807,16.832-0.806c2.867,0,14.918,2.339,14.163,6.75"/>
<path fill="none" stroke="#79BA70" stroke-miterlimit="10" d="M81.25,189.75c3.409-4.875,7.115-9.181,12.208-12.036
	c4.301-2.41,9.84-3.578,14.957-4.158c6.212-0.705,12.734-0.854,19.07-0.562c5.659,0.261,8.961,2.637,13.516,5.506"/>
<path fill="none" stroke="#79BA70" stroke-miterlimit="10" d="M93.5,163.5c2.184-3.933,10.506-5.704,14.5-4.25"/>
<path fill="none" stroke="#79BA70" stroke-miterlimit="10" d="M79.75,188c1.685-0.867,2.753-5.332,4.495-6.998
	c2.429-2.324,5.776-4.275,8.776-5.697c4.854-2.3,9.638-3.123,14.939-3.543c5.298-0.42,10.863-1.463,16.3-1.998
	c6.173-0.607,10.04,2.392,15.74,3.986"/>
<path fill="none" stroke="#79BA70" stroke-miterlimit="10" d="M93,167.25c4.953-4.65,11.347-6,18.624-6"/>
<path fill="none" stroke="#79BA70" stroke-miterlimit="10" d="M80,184.25c-0.389-2.719,5.869-7.09,7.999-8.743
	c2.729-2.117,5.083-3.77,8.265-5.075c5.006-2.054,10.26-2.839,15.68-3.57c4.077-0.549,7.911-0.218,11.918,0.194
	c3.901,0.401,8.187,2.801,11.889,2.694"/>
<path fill="none" stroke="#5B8952" stroke-miterlimit="10" d="M82.5,177.25c-1.291,3.623,1.545,8.619,4.5,10.75"/>
<path fill="none" stroke="#5B8952" stroke-miterlimit="10" d="M86.5,174c0,3.012-0.306,10.502,2.75,12.25"/>
<path fill="none" stroke="#5B8952" stroke-miterlimit="10" d="M90.5,170.5c0.17,5.834-1.614,9.671,3.5,14.25"/>
<path fill="none" stroke="#5B8952" stroke-miterlimit="10" d="M96.25,158c-0.019,6.181-4.72,20.36,1.75,24.5"/>
<path fill="none" stroke="#5B8952" stroke-miterlimit="10" d="M99.743,157.25c0.129,5.326-2.209,10.987-1.993,16.263
	c0.099,2.403,0.343,7.93,3.25,8.237"/>
<path fill="none" stroke="#5B8952" stroke-miterlimit="10" d="M103.25,157.75c-1.615,2.501-0.089,10.318-0.251,13.819
	c-0.123,2.668-1.784,6.698-0.249,9.017"/>
<path fill="none" stroke="#5B8952" stroke-miterlimit="10" d="M133.75,169c4.532-1.02,3.324,11.708,1.5,14"/>
<path fill="none" stroke="#5B8952" stroke-miterlimit="10" d="M128.5,166.5c5.591,0.635,6.872,11.355,2.24,13.59"/>
<path fill="none" stroke="#5B8952" stroke-miterlimit="10" d="M125.25,166c2.127-0.216,2.144,6.488,2,8.198
	c-0.203,2.408-0.342,3.39-1.902,5.244"/>
<path fill="none" stroke="#5B8952" stroke-miterlimit="10" d="M120.5,164.75c2.437,0.854,1.605,8.046,1.25,10.123
	c-0.354,2.071-1.527,1.888-1.764,3.882"/>
<path fill="none" stroke="#5B8952" stroke-miterlimit="10" d="M116,163.25c0,6.886,1.282,10.511-2.75,15.991"/>
<path fill="none" stroke="#5B8952" stroke-miterlimit="10" d="M111.25,162c0,5.713,1.493,13.836-2.969,18.263"/>
<path fill="none" stroke="#5B8952" stroke-miterlimit="10" d="M106,158.5c0.214,4.2,0.174,9.151-0.499,13.749
	c-0.393,2.683,0.22,5.52-0.773,8.014"/>
<path fill="none" stroke="#5B8952" stroke-miterlimit="10" d="M119,165.25c1.191,5.866-1.313,9.331-2.75,14.5"/>
<path fill="none" stroke="#5B8952" stroke-miterlimit="10" d="M128.75,166.25c1.038,0.685,0.579,4.842,0.5,6.487
	c-0.13,2.733-1.51,4.202-2,6.763"/>
<path fill="none" stroke="#5B8952" stroke-miterlimit="10" d="M138.75,174.25c1.615,1.097-2.013,8.176-2.5,10"/>
<path fill="none" stroke="#5B8952" stroke-miterlimit="10" d="M123.25,164.75c2.695,3.126,0.237,11.534-1.5,14.75"/>
<path fill="none" stroke="#5B8952" stroke-miterlimit="10" d="M113.5,162c0,3.26-0.465,6.246-0.806,9.444
	c-0.304,2.853-2.082,5.56-2.194,8.306"/>
<path fill="none" stroke="#5B8952" stroke-miterlimit="10" d="M108.5,159c1.709,1.185,1.243,9.48,1.006,11.783
	c-0.351,3.412-2.421,7.135-4.006,10.217"/>
<path fill="none" stroke="#5B8952" stroke-miterlimit="10" d="M93,167.25c0,5.607-0.282,11.801,2.25,16.75"/>
<path fill="none" stroke="#6D6D6D" stroke-miterlimit="10" d="M108.25,153c-0.239-0.224-0.546,0.027-0.48-0.501
	c0.484-0.318,0.81-0.947,1.23-1.249"/>
<path fill="none" stroke="#6D6D6D" stroke-miterlimit="10" d="M112.5,150.25c-0.83,1.033-1.476,2.124-2.5,3"/>
<path fill="none" stroke="#6D6D6D" stroke-miterlimit="10" d="M108.75,145.5c-1.364-0.375-2.402,1.706-2.75,3"/>
<path fill="none" stroke="#6D6D6D" stroke-miterlimit="10" d="M99,140.25c0.023,1.625,1.294,3.942,1.5,6"/>
<path fill="none" stroke="#6D6D6D" stroke-miterlimit="10" d="M93.5,144.25c1.011,0.918,1.911,1.934,1.5,3.5"/>
<path fill="none" stroke="#6D6D6D" stroke-miterlimit="10" d="M84.5,149.75c2.024-0.296,3.903,1.373,4.75,3"/>
<path fill="none" stroke="#6D6D6D" stroke-miterlimit="10" d="M85.5,146.25c1.343-0.848,2.516,0.734,3.5,1.75"/>
<path fill="none" stroke="#6D6D6D" stroke-miterlimit="10" d="M89.75,156c-1.462,1.309-4.082,4.991-2.5,7"/>
<path fill="none" stroke="#6D6D6D" stroke-miterlimit="10" d="M90.25,160.5c-0.081-0.595,0.196-1.418,0.343-1.96
	c0.216-0.064,0.435-0.078,0.657-0.04"/>
<path fill="none" stroke="#6D6D6D" stroke-miterlimit="10" d="M108.25,156c1.15-0.606,2.422-0.936,3.75-0.75"/>
<path fill="none" stroke="#6D6D6D" stroke-miterlimit="10" d="M105.5,154.75c1.072-1.93,2.692-3.899,3.5-5.75"/>
<path fill="none" stroke="#6D6D6D" stroke-miterlimit="10" d="M104,144.25c1.516,0.691-2.189,7.361-2,9.25"/>
<path fill="none" stroke="#6D6D6D" stroke-miterlimit="10" d="M97.5,139.5c-2.14,2.769-0.98,7.822-1.75,11.25"/>
<path fill="none" stroke="#6D6D6D" stroke-miterlimit="10" d="M88.25,142.75c0.296,2.483,1.923,7.474,3.5,9.5"/>
<path fill="none" stroke="#6D6D6D" stroke-miterlimit="10" d="M81.75,150.25c1.41,0.307,2.317,0.8,3.553,1.434
	c2.174,1.115,3.959,3.738,6.197,4.316"/>
<path fill="none" stroke="#6D6D6D" stroke-miterlimit="10" d="M94.5,154c0.525-1.433-0.552-3.054-0.838-4.61
	c-0.48-2.609-0.822-5.48-0.912-8.14"/>
<path fill="none" stroke="#6D6D6D" stroke-miterlimit="10" d="M101.75,150.75c1.27-1.96-0.476-6.968,3-9"/>
<path fill="none" stroke="#6D6D6D" stroke-miterlimit="10" d="M99.25,147.5c1.532-2.549,2.397-5.939,3.5-8.75"/>
<path fill="none" stroke="#6D6D6D" stroke-miterlimit="10" d="M105.5,151.5c1.368-0.492,2.537-1.611,4-1.75"/>
<path fill="none" stroke="#6D6D6D" stroke-miterlimit="10" d="M108.75,157.25c1.851-1.39,4.943-4.563,7.25-1.5"/>
<path fill="none" stroke="#6D6D6D" stroke-miterlimit="10" d="M90,164.5c0-1.018-0.548-2.995,0.759-3.216
	c1.082-0.183,1.485,0.917,1.491,1.716"/>
<path fill="none" stroke="#6D6D6D" stroke-miterlimit="10" d="M88.5,140.25c0,2.041,0.629,5.621-0.25,7.25"/>
<path fill="none" stroke="#6D6D6D" stroke-miterlimit="10" d="M96,146.5c-1.103-1.913-1.276-5.35,1-6.5"/>
<path fill="none" stroke="#6D6D6D" stroke-miterlimit="10" d="M102.25,149.5c1.537-3.026,2.57-4.203,5.75-5"/>
<path fill="none" stroke="#6D6D6D" stroke-miterlimit="10" d="M108.75,150.75c0.802-1.022,2.243-0.994,3.5-1"/>
<path fill="none" stroke="#6D6D6D" stroke-miterlimit="10" d="M109.75,154.75c1.976-0.844,3.839,0.361,5.25,1.75"/>
<path fill="none" stroke="#6D6D6D" stroke-miterlimit="10" d="M90.5,155c-3.688,0-5.967-2.863-9.75-2.5"/>
<path fill="none" stroke="#6D6D6D" stroke-miterlimit="10" d="M84.25,149.25c0.37-0.996-0.655-1.854-1.5-2.5"/>
<path fill="none" stroke="#6D6D6D" stroke-miterlimit="10" d="M86.25,155.5c-1.444-0.692-2.929,0.841-3.25,2.25"/>
<path fill="none" stroke="#6D6D6D" stroke-miterlimit="10" d="M88.5,158.25c-1.419-0.014-2.088,2.062-2.25,3.25"/>
<path fill="none" stroke="#6D6D6D" stroke-miterlimit="10" d="M87.25,145.5c1.278,0.582,3.033,1.876,3.75,3"/>
<path fill="none" stroke="#6D6D6D" stroke-miterlimit="10" d="M98.25,152.5c1.441-1.594-0.635-5.222,1.5-6.5"/>
<path fill="none" stroke="#6D6D6D" stroke-miterlimit="10" d="M102,152.75c0.517-0.691,0.971-1.926,1.724-2.749
	c1.738-1.899,4.158-1.638,6.276-3.001"/>
<path fill="none" stroke="#6D6D6D" stroke-miterlimit="10" d="M110.5,153.5c-1.101-2.095,4.795-0.772,5.75,0"/>
<path fill="none" stroke="#6D6D6D" stroke-miterlimit="10" d="M105.25,153.25c0.361-1.987,3.701-3.06,5.5-3"/>
<path fill="none" stroke="#6D6D6D" stroke-miterlimit="10" d="M109.25,156.25c0.712-0.725,1.799-0.663,2.75-0.25"/>
<path fill="none" stroke="#6D6D6D" stroke-miterlimit="10" d="M97.75,156.5c-0.648-2.346-4.757-5.122-7.25-5.5"/>
<path fill="none" stroke="#6D6D6D" stroke-miterlimit="10" d="M92.75,156.75c0.028-1.394-6.654-3.942-8.25-5"/>
<path fill="none" stroke="#6D6D6D" stroke-miterlimit="10" d="M99.5,155.5c1.004-2.288-0.966-7.706,2.25-9.25"/>
<path fill="none" stroke="#6D6D6D" stroke-miterlimit="10" d="M105.5,155c-2.467-1.403,1.625-4.271,3.25-4.25"/>
<path fill="none" stroke="#6D6D6D" stroke-miterlimit="10" d="M94.5,151c0.958-2.911,0.306-6.003-2.25-8"/>
<path fill="none" stroke="#6D6D6D" stroke-miterlimit="10" d="M88.25,149c-0.767-1.527-3.044-3.082-4.75-3.25"/>
<path fill="none" stroke="#6D6D6D" stroke-miterlimit="10" d="M88.5,157c-2.226,0-4.987-0.509-7,0.25"/>
<path fill="none" stroke="#6D6D6D" stroke-miterlimit="10" d="M91.5,159.25c-2.2,1.154-4.369,1.752-6,3.75"/>
<path fill="none" stroke="#6D6D6D" stroke-miterlimit="10" d="M91.25,152.75c-0.933-1.716-4.86-3.038-6.75-3"/>
<path fill="none" stroke="#6D6D6D" stroke-miterlimit="10" d="M92,147.75c-1.653-1.79-1.714-5.48-1-7.75"/>
<path fill="none" stroke="#6D6D6D" stroke-miterlimit="10" d="M96,147.25c1.587-0.12,2.049-3.99,4.25-5"/>
<path fill="none" stroke="#6D6D6D" stroke-miterlimit="10" d="M97,151.25c3.207-1.339,5.375-4.385,9.25-5.25"/>
<path fill="none" stroke="#6D6D6D" stroke-miterlimit="10" d="M103.25,151.5c1.972-0.376,4.269-1.457,6.25-1.25"/>
<path fill="none" stroke="#6D6D6D" stroke-miterlimit="10" d="M106,155.5c3.278-0.638,7.519-2.86,10.25,0.25"/>
<path fill="none" stroke="#6D6D6D" stroke-miterlimit="10" d="M100.75,155.5c-1.744-1.75-3.256-3.758-5-5.5"/>
<path fill="none" stroke="#6D6D6D" stroke-miterlimit="10" d="M94.25,155.75c-1.333-0.291-2.392-1.353-3.75-1.75"/>
<path fill="none" stroke="#6D6D6D" stroke-miterlimit="10" d="M92.5,158.75c-1.469,0.148-2.716-0.356-4-0.75"/>
<path fill="none" stroke="#6D6D6D" stroke-miterlimit="10" d="M99.75,154.5c-0.082-3.175,1.836-5.58,3.5-8"/>
<path fill="none" stroke="#6D6D6D" stroke-miterlimit="10" d="M103.5,153.25c0.086-3.132,3.495-5.049,6.25-5.25"/>
<path fill="none" stroke="#B2B3B3" stroke-miterlimit="10" d="M107.5,156.25c1.563-0.583,2.612-2.016,4.25-2.5"/>
<path fill="none" stroke="#B2B3B3" stroke-miterlimit="10" d="M84,147.5c1.762,1.841,5.182,1.755,6.75,3.25"/>
<path fill="none" stroke="#B2B3B3" stroke-miterlimit="10" d="M94.75,152.5c-0.252-2.051,2.63-4.453,4-5.75"/>
<path fill="none" stroke="#B2B3B3" stroke-miterlimit="10" d="M105.25,147c-2.115,0.693-4.396,4.417-4,6.75"/>
<path fill="none" stroke="#B2B3B3" stroke-miterlimit="10" d="M93.5,141.75c0,2.813-0.317,5.491,1,8"/>
<path fill="none" stroke="#B2B3B3" stroke-miterlimit="10" d="M84.25,146.5c2.483-0.199,3.473,2.691,4.75,4.25"/>
<path fill="none" stroke="#B2B3B3" stroke-miterlimit="10" d="M82.25,160c1.232-1.115,3.732-2.208,5.5-2.25"/>
<path fill="none" stroke="#B2B3B3" stroke-miterlimit="10" d="M92,158c-1.009,1.183-1.644,2.371-1.75,4"/>
<path fill="none" stroke="#B2B3B3" stroke-miterlimit="10" d="M97,155.5c0.012-2.16-0.328-5.821,2-6.75"/>
<path fill="none" stroke="#B2B3B3" stroke-miterlimit="10" d="M105.25,152.25c0.113-1.153,0.17-2.593,1-3.5"/>
<path fill="none" stroke="#B2B3B3" stroke-miterlimit="10" d="M94.25,140.75c-2.439,2.809-4.823,6.336-4.5,10.25"/>
<path fill="none" stroke="#B2B3B3" stroke-miterlimit="10" d="M85,144c1.338,2.151,1.859,4.704,3.75,6.5"/>
<path fill="none" stroke="#B2B3B3" stroke-miterlimit="10" d="M98,143c-0.918,1.581-1.322,4.554-1.25,6.75"/>
<path fill="none" stroke="#B2B3B3" stroke-miterlimit="10" d="M104.5,145.5c-0.81,1.721-0.794,3.61-0.75,5.5"/>
<path fill="none" stroke="#B2B3B3" stroke-miterlimit="10" d="M110.75,150.25c-2.309,0.291-6.807,3.924-7,6.25"/>
<path fill="none" stroke="#B2B3B3" stroke-miterlimit="10" d="M113.25,156c-1.5,0-3,0-4.5,0"/>
<path fill="none" stroke="#B2B3B3" stroke-miterlimit="10" d="M87.5,143.25c1.699,1.516,1.876,3.315,3,5.25"/>
<path fill="none" stroke="#B2B3B3" stroke-miterlimit="10" d="M81.25,148.5c2.646,1.635,5.461,3.473,7,6.25"/>
<path fill="none" stroke="#B2B3B3" stroke-miterlimit="10" d="M91.75,155.25c-0.883,2.545-3.092,5.626-4.75,7.75"/>
<path fill="none" stroke="#B2B3B3" stroke-miterlimit="10" d="M93,152.25c-3.077,0.432-5.047,5.866-6.75,8.25"/>
<path fill="none" stroke="#B2B3B3" stroke-miterlimit="10" d="M96,142.75c-1.97,1.803-0.717,4.992-1.75,6.75"/>
<path fill="none" stroke="#E2E2E2" stroke-miterlimit="10" d="M107,148.25c-2.715-0.331-3.545,1.859-5.75,2"/>
<path fill="none" stroke="#E2E2E2" stroke-miterlimit="10" d="M95.5,149.25c-1.85-2.448-4.526-2.762-7.25-3.5"/>
<path fill="none" stroke="#E2E2E2" stroke-miterlimit="10" d="M97.5,146c-2.219-1.174-4.319-3.827-7-3.75"/>
<path fill="none" stroke="#E2E2E2" stroke-miterlimit="10" d="M90,151.25c-1.302-1.102-5.911-1.114-7.75-1"/>
<path fill="none" stroke="#E2E2E2" stroke-miterlimit="10" d="M87.75,151.5c2.347,1.156,5.17,2.492,7.25,3.75"/>
<path fill="none" stroke="#E2E2E2" stroke-miterlimit="10" d="M97.5,152.75c-2.961-0.926-6.152-4.168-8.75-6"/>
<path fill="none" stroke="#E2E2E2" stroke-miterlimit="10" d="M111.25,148.75c-4.747,0.861-7.258,4.303-10.25,7.5"/>
<path fill="none" stroke="#E2E2E2" stroke-miterlimit="10" d="M111.75,155.75c-1.93,0.272-3.652,1.236-5.25,2.25"/>
<path fill="none" stroke="#E2E2E2" stroke-miterlimit="10" d="M101.25,151.25c1.144-1.936,3.48-3.574,4-5.75"/>
<path fill="none" stroke="#E2E2E2" stroke-miterlimit="10" d="M102.25,142.75c-0.577,2.948-3.315,6.365-0.75,8.75"/>
<path fill="none" stroke="#E2E2E2" stroke-miterlimit="10" d="M94.75,144c-0.374,2.298-2.027,6.335-0.5,8.25"/>
<path fill="none" stroke="#E2E2E2" stroke-miterlimit="10" d="M83.5,153.25c1.442-0.87,2.792-1.403,4.5-1.25"/>
<path fill="none" stroke="#E2E2E2" stroke-miterlimit="10" d="M92,164c0.124-1.013,0.286-2.928,0.75-3"/>
<path fill="none" stroke="#E2E2E2" stroke-miterlimit="10" d="M94.75,156.5c-0.16-1.131-0.493-2.227-1-3.25"/>
<path fill="none" stroke="#E2E2E2" stroke-miterlimit="10" d="M91.5,159.25c0.228-2.089,0.002-3.814-1.75-5.25"/>
<path fill="none" stroke="#E2E2E2" stroke-miterlimit="10" d="M97.75,156c-1.384-1.709-0.113-4.443,1.5-5.75"/>
<path fill="none" stroke="#E2E2E2" stroke-miterlimit="10" d="M102.5,153.5c1.475-0.628,3.525-2.669,5.25-3.75"/>
<path fill="none" stroke="#E2E2E2" stroke-miterlimit="10" d="M105.75,156.25c0.773-1.362,2.351-4.106,4-4"/>
<path fill="none" stroke="#E2E2E2" stroke-miterlimit="10" d="M108.75,157.75c1.227-0.92,2.001-2.435,3.25-3.5"/>
<path fill="none" stroke="#E2E2E2" stroke-miterlimit="10" d="M105.5,144.75c-1.498,0.333-3.175,5.766-3.5,7.5"/>
<path fill="none" stroke="#E2E2E2" stroke-miterlimit="10" d="M98.75,142.5c0,2.25,0,4.5,0,6.75"/>
<path fill="none" stroke="#E2E2E2" stroke-miterlimit="10" d="M92.75,141.75c-0.175,2.927,0.48,5.806,0.5,8.75"/>
<path fill="none" stroke="#E2E2E2" stroke-miterlimit="10" d="M87.5,144.75c1.215,0.83,2.663,3.127,3.5,4.5"/>
<path fill="none" stroke="#E2E2E2" stroke-miterlimit="10" d="M82.5,150.75c-0.215,0.244-0.238,0.481-0.068,0.713
	c2.181,0.728,4.179,1.74,6.318,2.537"/>
<path fill="none" stroke="#E2E2E2" stroke-miterlimit="10" d="M83.75,157.25c1.92-0.081,3.803-0.244,5.75-0.25"/>
<path fill="none" stroke="#E2E2E2" stroke-miterlimit="10" d="M92,147.5c1.336,0.476,1.863,5.603,3.5,7.25"/>
<path fill="none" stroke="#E2E2E2" stroke-miterlimit="10" d="M100.25,143.25c0.461,1.043-0.629,2.687-1.053,3.968
	c-0.638,1.927-0.68,3.512-0.697,5.532"/>
<path fill="none" stroke="#E2E2E2" stroke-miterlimit="10" d="M106.75,146.5c-2.798,0.478-3.964,4.125-4.5,6.5"/>
<path fill="none" stroke="#E2E2E2" stroke-miterlimit="10" d="M101.75,144.25c-0.013,2.086-1.623,4.064-1.75,6.25"/>
<path fill="none" stroke="#E2E2E2" stroke-miterlimit="10" d="M108.5,148.5c-1.06,0.349-1.313,2.125-1.5,3.25"/>
<path fill="none" stroke="#E2E2E2" stroke-miterlimit="10" d="M104,143.75c-0.962,2.685-2.212,5.254-3,8"/>
<path fill="none" stroke="#E2E2E2" stroke-miterlimit="10" d="M90.75,145.25c0.294,1.415,1.239,4.065,2.25,5"/>
<path fill="none" stroke="#E2E2E2" stroke-miterlimit="10" d="M83.75,153.75c3.148,0.881,5.771,2.812,8.75,4"/>
<path fill="none" stroke="#E2E2E2" stroke-miterlimit="10" d="M85.75,158.75c1.882,0.28,3.668,0.583,5.25,1.75"/>
<path fill="none" stroke="#E2E2E2" stroke-miterlimit="10" d="M109,149.5c-1.294,1.073-2.022,2.635-3.25,3.75"/>
<path fill="none" stroke="#E2E2E2" stroke-miterlimit="10" d="M112.25,157.25c-1.364-0.111-3.333-0.029-4.25,0.75"/>
<path fill="none" stroke="#E2E2E2" stroke-miterlimit="10" d="M107.5,145.25c-2.3,0.888-3.273,6.492-4.25,8.75"/>
<path fill="none" stroke="#E2E2E2" stroke-miterlimit="10" d="M98.5,144.25c-1.223,0.555,0.241,8.135,0.25,10.25"/>
<path fill="none" stroke="#E2E2E2" stroke-miterlimit="10" d="M87.5,144.75c1.41,1.494,3.785,3.281,4,5.5"/>
<path fill="none" stroke="#E2E2E2" stroke-miterlimit="10" d="M87.75,141.5c2.841,0.98,3.386,5.514,5.25,7.75"/>
<path fill="none" stroke="#E2E2E2" stroke-miterlimit="10" d="M83.5,147.75c2.758-0.326,6.712,3.169,7.75,5.5"/>
<path fill="none" stroke="#E2E2E2" stroke-miterlimit="10" d="M90.5,144.25c2.267,1.404,3.983,3.444,4.75,6"/>
<path fill="none" stroke="#E2E2E2" stroke-miterlimit="10" d="M85.25,155.5c2.859-0.001,5.676-0.264,8,1.75"/>
<path fill="none" stroke="#E2E2E2" stroke-miterlimit="10" d="M93.5,150.75c2.718-0.566,3.375,2.488,5,3.75"/>
<path fill="none" stroke="#E2E2E2" stroke-miterlimit="10" d="M103.75,149.75c-0.502,0.966-0.575,2.144-0.5,3.25"/>
<path fill="none" stroke="#000000" stroke-miterlimit="10" d="M87,192.75c1.938-9.583,13.67-10.975,21.281-12.487
	c4.503-0.895,8.753-1.002,13.469-1.013c2.297-0.005,4.911-0.113,7.1,0.552c3.06,0.928,5.417,2.885,8.15,4.448"/>
<path fill="none" stroke="#5B8952" stroke-miterlimit="10" d="M79.5,182.25c0.334,2.008,4.095,7.9,6.25,8"/>
<path fill="none" stroke="#000000" stroke-miterlimit="10" d="M138,184.75c2.05-1.647,3.372-5.955,3.25-8.611
	c-0.167-3.648-3.568-5.348-6.307-7.194c-5.512-3.716-11.814-3.379-17.736-5.614c-3.317-1.252-6.773-2.719-9.695-4.65
	c-2.551-1.687-4.661-1.43-7.769-1.43c-1.178,0-2.583-0.206-3.744,0c-2.045,0.362-1.646,0.067-1.999,2.056
	c-0.236,1.327,0.274,2.8,0.004,4.119c-0.417,2.038-1.462,3.057-2.656,4.827c-3.112,4.609-10.286,7.009-12.159,12.486
	c-1.393,4.072,2.456,12.055,7.312,12.013"/>
<ellipse transform="matrix(0.8929 -0.4503 0.4503 0.8929 -72.1478 80.6691)" fill="#E27D26" cx="133.49" cy="191.987" rx="3.323" ry="3.465"/>
<path fill="#B25126" d="M130.956,193.89c0.527-0.37,0.808-1.167,1.264-1.628c0.362-0.364,0.924-0.66,1.413-0.799
	c0.808-0.23,2.233-0.118,2.988,0.495c0.067-0.616-0.641-2.083-1.081-2.568c-0.796-0.876-1.976-0.789-2.874-0.49
	c-0.865,0.289-1.892,0.758-2.269,1.65c-0.387,0.918-0.16,2.313,0.447,3.334"/>
<ellipse transform="matrix(0.8929 -0.4502 0.4502 0.8929 -72.0519 80.7451)" fill="#0E0B0E" stroke="#000000" stroke-miterlimit="10" cx="133.717" cy="191.841" rx="1.622" ry="1.928"/>
<ellipse transform="matrix(0.8929 -0.4503 0.4503 0.8929 -72.1691 80.6548)" fill="none" stroke="#000000" stroke-miterlimit="10" cx="133.437" cy="192.013" rx="3.323" ry="3.465"/>
<circle fill="#EAEAEA" cx="135.068" cy="190.714" r="1.142"/>
<ellipse transform="matrix(0.8929 -0.4502 0.4502 0.8929 -77.8695 118.9719)" fill="#E27D26" cx="211.192" cy="223.199" rx="3.154" ry="3.589"/>
<path fill="#B25126" d="M208.809,225.05c0.497-0.358,0.741-1.161,1.166-1.614c0.337-0.358,0.87-0.641,1.338-0.765
	c0.773-0.206,2.155-0.042,2.906,0.607c0.044-0.625-0.692-2.144-1.134-2.652c-0.8-0.921-1.938-0.872-2.795-0.599
	c-0.827,0.264-1.803,0.706-2.136,1.601c-0.343,0.921-0.074,2.351,0.548,3.411"/>
<ellipse transform="matrix(0.8929 -0.4503 0.4503 0.8929 -77.7915 119.0767)" fill="#0E0B0E" stroke="#000000" stroke-miterlimit="10" cx="211.407" cy="223.059" rx="1.54" ry="1.997"/>
<ellipse transform="matrix(0.8928 -0.4504 0.4504 0.8928 -77.9082 119.0121)" fill="none" stroke="#000000" stroke-miterlimit="10" cx="211.142" cy="223.225" rx="3.154" ry="3.589"/>
<ellipse transform="matrix(0.8929 -0.4503 0.4503 0.8929 -76.8198 118.7289)" fill="#EAEAEA" cx="211.151" cy="220.835" rx="1.084" ry="1.185"/>
<ellipse transform="matrix(0.8929 -0.4502 0.4502 0.8929 -75.9532 127.0764)" fill="#E27D26" cx="229.189" cy="223.223" rx="3.154" ry="3.589"/>
<path fill="#B25126" d="M226.806,225.073c0.497-0.358,0.741-1.161,1.165-1.614c0.338-0.358,0.871-0.641,1.338-0.765
	c0.773-0.206,2.156-0.042,2.906,0.607c0.045-0.625-0.691-2.144-1.133-2.652c-0.801-0.921-1.938-0.872-2.795-0.599
	c-0.827,0.264-1.803,0.706-2.137,1.601c-0.342,0.921-0.074,2.351,0.549,3.411"/>
<ellipse transform="matrix(0.8929 -0.4503 0.4503 0.8929 -75.8746 127.1825)" fill="#0E0B0E" stroke="#000000" stroke-miterlimit="10" cx="229.404" cy="223.082" rx="1.54" ry="1.997"/>
<ellipse transform="matrix(0.8929 -0.4503 0.4503 0.8929 -75.9836 127.0985)" fill="none" stroke="#000000" stroke-miterlimit="10" cx="229.139" cy="223.249" rx="3.154" ry="3.589"/>
<ellipse transform="matrix(0.8928 -0.4505 0.4505 0.8928 -74.9218 126.8965)" fill="#EAEAEA" cx="229.147" cy="220.858" rx="1.084" ry="1.185"/>
<ellipse transform="matrix(0.8929 -0.4503 0.4503 0.8929 -74.4685 70.5938)" fill="#E27D26" cx="111.151" cy="191.827" rx="3.323" ry="3.466"/>
<path fill="#B25126" d="M108.618,193.731c0.527-0.37,0.808-1.168,1.264-1.629c0.362-0.364,0.924-0.66,1.413-0.799
	c0.808-0.23,2.233-0.118,2.988,0.494c0.067-0.615-0.641-2.084-1.081-2.568c-0.796-0.876-1.976-0.789-2.874-0.489
	c-0.865,0.289-1.892,0.759-2.269,1.649c-0.387,0.918-0.16,2.314,0.447,3.334"/>
<ellipse transform="matrix(0.8929 -0.4502 0.4502 0.8929 -74.3723 70.6709)" fill="#0E0B0E" stroke="#000000" stroke-miterlimit="10" cx="111.379" cy="191.682" rx="1.622" ry="1.928"/>
<ellipse transform="matrix(0.8929 -0.4502 0.4502 0.8929 -74.4825 70.5667)" fill="none" stroke="#000000" stroke-miterlimit="10" cx="111.098" cy="191.854" rx="3.323" ry="3.465"/>
<circle fill="#EAEAEA" cx="112.73" cy="190.555" r="1.142"/>
<ellipse transform="matrix(0.8929 -0.4502 0.4502 0.8929 -100.8774 106.1632)" fill="#E27D26" cx="172.743" cy="265.151" rx="3.709" ry="3.563"/>
<path fill="#B25126" d="M169.893,267.233c0.591-0.406,0.929-1.251,1.446-1.748c0.411-0.395,1.038-0.724,1.581-0.886
	c0.896-0.271,2.458-0.203,3.265,0.41c0.096-0.646-0.63-2.157-1.096-2.647c-0.843-0.89-2.142-0.757-3.138-0.41
	c-0.961,0.332-2.105,0.859-2.55,1.806c-0.458,0.973-0.258,2.427,0.373,3.472"/>
<ellipse transform="matrix(0.8929 -0.4502 0.4502 0.8929 -100.7812 106.2661)" fill="#0E0B0E" stroke="#000000" stroke-miterlimit="10" cx="172.998" cy="264.991" rx="1.811" ry="1.983"/>
<ellipse transform="matrix(0.8929 -0.4503 0.4503 0.8929 -100.9116 106.1638)" fill="none" stroke="#000000" stroke-miterlimit="10" cx="172.684" cy="265.182" rx="3.71" ry="3.562"/>
<ellipse transform="matrix(0.8927 -0.4507 0.4507 0.8927 -100.1543 106.9758)" fill="#EAEAEA" cx="174.522" cy="263.765" rx="1.275" ry="1.175"/>
<path fill="none" stroke="#000000" stroke-miterlimit="10" d="M194.75,199.25c2.434,0.318,3.354,1.319,5.25,2.75"/>
<path fill="none" stroke="#000000" stroke-miterlimit="10" d="M207.5,189c2.043,1.182,2.867,7.165,3,9.5"/>
<path fill="none" stroke="#000000" stroke-miterlimit="10" d="M226.25,187.5c-2.02,1.53-5.258,4.807-5.75,7.5"/>
<path fill="none" stroke="#000000" stroke-miterlimit="10" d="M242,196.25c-4.314,0.677-8.597,1.714-12.5,3.75"/>
<path fill="#B7B7B7" d="M244.5,199.25c2.666-0.446,7.113,2.472,7.249,5.25c0.136,2.771-4.146,6.072-6.604,6.692
	c1.685-0.253,4.559-3.461,4.618-5.205c0.073-2.128-3.295-5.511-4.763-6.737"/>
<path fill="#B7B7B7" d="M192,204.25c-2.152,0.251-4.119-0.732-5.632-2.187c1.84-1.255,4.549-1.057,6.764-1.063
	c-2.192-0.448-2.193,3.139-0.632,3.75"/>
<path fill="#B7B7B7" d="M200.75,198.5c-1.273-3.101,2.728-5.687,4.687-7.619c0.976,1.226,0.524,2.716,1.002,4.106
	c0.563,1.638,1.344,2.628,2.486,3.974c-1.82,0.04-6.085-3.736-7.675-0.961"/>
<path fill="#B7B7B7" d="M222,197.75c0.482-2.432,2.755-7.036,5.506-7c3.426,0.045,5.123,4.611,8.438,4.944
	c-2.451-0.063-4.754,0.292-7.206,0.056c-2.913-0.281-5.6-0.593-6.737,2.75"/>
<path fill="#B7B7B7" d="M214.75,200.5c0.003-3.12-0.912-4.785-2.438-7.625c1.865-0.377,4.16,0.129,6.111-0.28
	c-2.792,1.957-0.965,6.215-3.174,7.906"/>
<path fill="#121212" d="M244.125,229.875c0.5,1.536-0.293,3.71,0.524,5.115c-0.886-0.063-1.942-0.585-2.774-0.852
	c-0.833-0.268-2.043-0.436-2.847-0.864c1.032-0.359,2.337-0.336,3.472-0.677c1.359-0.409,1.315-1.612,2-2.848"/>
<path fill="#121212" d="M191.75,231.25c-0.439,1.043-0.173,3.113-0.105,4.364c1.306-1.168,2.508-1.858,4.323-2.02
	c1.168-0.104,2.4,0.012,3.494-0.341c-1.331-0.296-2.742-0.294-4.1-0.512c-1.507-0.24-2.495-1.178-3.861-1.742"/>
<path fill="#B7B7B7" d="M221.75,291.5c-1.22-0.19-2.592,0.96-3.473,1.653c-0.813,0.641-1.909,1.037-2.614,1.821
	c1.113,0.078,1.947-0.313,2.337,0.748c0.363,0.99-0.303,2.245-0.253,3.239c1.205-2.543,3.032-4.756,4.503-7.087"/>
<path fill="#B7B7B7" d="M231.375,290c1.301-0.409,2.606-0.896,3.989-0.384c-0.688,0.868-1.087,1.88-0.776,3.102
	c-1.242-0.355-1.998-1.819-3.338-2.218"/>
<path fill="#B7B7B7" d="M225.625,290.375c-0.648,0.866,1.86,1.173,2.557,0.743c-0.805-0.112-1.559-0.436-2.432-0.493"/>
<path fill="#B7B7B7" d="M228.125,294.125c0.206-0.11,0.492-0.127,0.735-0.105c0.289,1.275,1.764,2.329,1.468,3.73
	c-0.996-0.241-0.594-0.711-0.828-1.383c-0.275-0.783-0.444-1.283-1.125-1.867"/>
<path fill="#B7B7B7" d="M225.125,296.875c-0.63,1.583-1.779,4.272-1.132,5.99c0.505-0.502,0.464-2.261,0.702-2.993
	c0.353-1.087,0.725-1.927,0.68-3.122"/>
<path fill="#CFCECC" d="M248.375,302.5c4.396,2.071,9.662,7.701,5.119,12.002c-2.019,1.911-4.716,2.645-7.501,3.206
	c-3.396,0.686-6.488,0.188-9.661-0.076c1.133-0.288,2.29-0.075,3.414-0.382c1.212-0.33,2.274-0.96,3.471-1.382
	c1.891-0.667,3.878-2.109,5.402-3.359c1.538-1.263,2.307-3.119,2.131-5.076c-0.109-1.208-0.515-1.404-1.128-2.301
	c-0.549-0.803-0.549-1.73-1.122-2.507"/>
<path fill="#B7B7B7" d="M258.625,302c1.005-0.014,2.179,0.193,2.931,0.902c1.462,1.379,0.111,1.873-0.536,3.283
	c0.013-0.589,0.503-1.706,0.337-2.283c-0.188-0.648-1.352-1.391-1.981-1.652"/>
<path fill="#B7B7B7" d="M220.125,311.375c1.063,0,2.22,0.021,3.143-0.271c-0.598,0.765-1.484,3.019-0.262,3.706
	c-1.638-1.046-2.25-1.64-2.256-3.56"/>
<path fill="#B7B7B7" d="M223.875,320.125c-0.736,1.324,1.099,3.725,2.381,4.003c1.502,0.326,4.311-0.688,4.072-2.487
	c-2.24-0.074-4.875,2.51-6.078-0.891"/>
<path fill="#B7B7B7" d="M233.125,327.625c2.162,1.108,3.503,2.182,6.121,1.591c1.644-0.371,3.124-1.141,2.984-2.956
	c-0.83,0.368-1.387,1.221-2.175,1.624c-0.796,0.407-1.894,0.537-2.79,0.622c-1.221,0.116-2.578,0.074-3.641-0.381"/>
<path fill="#B7B7B7" d="M250.375,325.625c1.433-0.033,2.916,1.655,4.389,0.665c0.664-0.446,1.934-2.931,1.489-3.627
	c-1.228,2.617-3.241,2.965-5.878,3.212"/>
<path fill="#B7B7B7" d="M263.75,310.125c1.664-0.023,2.935,2.485,2.475,3.903c-0.556,1.71-2.535,3.367-3.755,4.489
	c2.256-0.903,4.233-6.733,1.78-8.518"/>
<path fill="#131313" d="M273.333,294.838c1.383-0.025,2.437,4.454,2.875,5.49c0.919,2.174,1.515,4.543,2.621,6.685
	c0.926,1.791,2.017,3.529,3.662,4.659c0.805,0.553,1.841,1.253,2.851,1.504c0.745,0.187,1.568,0.029,2.107,0.455
	c-1.477,1.103-3.572,1.382-4.963,2.856c-1.118,1.187-1.845,2.813-2.802,4.185c-1.534,2.198-5.004,4.639-7.542,4.678
	c0.93-0.833,1.914-2.01,2.662-3.016c0.95-1.278,2.04-2.476,2.861-3.825c1.239-2.036,0.79-5.732,0.339-8.017
	c-0.252-1.275-1.03-2.361-1.338-3.614c-0.358-1.459-0.438-2.889-0.843-4.336c-0.328-1.177-0.691-2.445-0.982-3.574
	c-0.286-1.109-0.129-2.439-0.509-3.463"/>
<path fill="#131313" d="M201.5,343.672c-0.657,0.095-1.207,0.43-1.499,1.001c1.415,3.425,6.826-0.36,8.803-0.807
	c-0.856-0.118-9.031,1.478-7.137-0.861"/>
<path fill="#131313" d="M247.5,328.672c1.821-0.016,3.609,1.335,5.009,2.333c1.386,0.987,3.648,2.123,4.675,3.501
	c1.087,1.462,1.38,3.84,1.291,5.645c-1.345,0.235-3.505-0.897-4.899-1.183c-2.071-0.425-4.528-0.337-6.487-0.942
	c1.211-1.762,1.552-6.62,0.745-8.688"/>
<path fill="#131313" d="M226.333,329.338c0.619,3.184,0.5,6.487,0.5,9.738c0,1.651,0.553,5.142-0.797,6.33
	c-1.088,0.958-0.459,0.232-1.666-0.408c-0.935-0.497-2.006-0.75-3.02-1.146c-2.091-0.815-3.778-0.601-5.998-0.697
	c0.255-0.818,1.723-2.021,2.368-2.834c1.443-1.815,2.911-3.59,4.413-5.366c1.473-1.743,2.565-3.479,4.199-5.117"/>
<path fill="#131313" d="M202.5,309.505c-0.108,2.465,1.022,4.716,1.383,7.161c0.415,2.822,0.941,5.574,1.422,8.372
	c0.283,1.651,0.079,3.303,0.195,4.971c0.103,1.472,0.479,2.827,0.525,4.316c1.532-1.149,3.382-1.201,5.128-1.809
	c-0.945-1.998-1.853-3.232-2.19-5.536c-0.314-2.144-1.153-4.431-1.922-6.466c-0.739-1.957-1.482-3.972-2.37-5.884
	c-0.631-1.361-2.036-3.12-2.171-4.626"/>
<path d="M238.667,356.011c2.702,4.105-4.217,6.784-6.616,4.029c3.127-0.103,4.894-1.312,6.282-3.862"/>
<path d="M289.167,326.011c1.688-0.005,3.896-0.74,5.463-0.166c1.474,0.54,3.019,3.548,1.657,4.875
	c-0.974-1.207-0.274-2.424-1.958-3.579c-1.1-0.755-2.415-1.392-3.829-1.297"/>
<path fill="#59595A" d="M269.5,202.837c1.136-0.144,2.62,0.254,3.007,1.338c0.543,1.52-1.149,2.578-1.814,3.628
	c-0.258-1.861,1.332-3.313-0.525-4.799"/>
<path fill="#5B5C5C" stroke="#000000" stroke-miterlimit="10" d="M266.5,223.837c0,3.202-0.134,6.452,0.025,9.642
	c0.286,0.092,0.837,0.09,1.12,0.004c0.113-2.503,0.844-7.409,0.099-9.71"/>
<path fill="none" stroke="#000000" stroke-miterlimit="10" d="M269.5,224.834c-0.892-0.197-2.265-1.178-2.32-2.18
	c4.247-2.674,7.311,5.969,2.487,7.013"/>
<path fill="#141314" d="M161.167,352.521c-2.019-0.23-4.183,2.095-3.5,4.203c0.597,1.84,3.985,1.462,5.824,1.297
	c1.144-0.103,2.455-0.308,3.196-1.343c0.313-0.436,0.979-2.487,0.453-3.002c-1.278-1.251-4.558,1.278-5.641-1.322"/>
<path d="M159.333,354.688c-2.373,2.885,2.714,3.871,4.326,2.024c-1.555-0.248-4.255-0.604-3.826-2.857"/>
<path d="M185.167,353.354c0.711-0.004,1.467,0.021,2.138-0.063c0.213-1.778,1.587,0.27,1.341,1.379
	c-1.006,0.038-2.61,0.395-2.979-0.816"/>
<path fill="#EF9959" d="M181.208,310.217c-2.247,0.846-4.547,1.706-6.938,2.032c-1.117,0.152-2.636,0.508-3.258-0.645
	c-0.223-0.413-0.723-1.359-0.3-1.758c0.349-0.329,0.947-0.004,1.363-0.092c1.884-0.396,3.775-1.465,5.525-2.244
	c2.33-1.038,4.846-1.599,7.232-2.325c1.534-0.467,3.107-0.788,4.69-1.038c0.659-0.104,1.309-0.049,1.946-0.21
	c0.773-0.196,1.498-0.542,2.285-0.701c0.535-0.108,2.578-1.036,2.711-0.245c0.102,0.607-1.692,1.644-2.088,1.945
	c-1.262,0.962-2.7,1.675-4.165,2.272C187.276,308.405,184.171,309.102,181.208,310.217z"/>
<path fill="#EED459" d="M171.5,312.438c-0.12-0.883,3.501-0.932,4.076-1.027c1.841-0.309,3.634-1.135,5.391-1.771
	c1.011-0.367,2.034-0.548,3.029-0.938c0.977-0.383,1.953-0.833,2.917-1.248c1.98-0.853,3.997-1.737,5.96-2.529
	c0.707-0.285,1.421-0.599,2.045-0.973c0.765-0.458,1.263-0.931,2.141-1.19c1.051-0.311,2.375-0.116,3.484-0.141
	c-0.841,0.384-1.562,1.215-2.313,1.748c-0.826,0.587-1.724,1.299-2.513,1.938c-1.689,1.37-3.58,2.487-5.634,3.255
	c-1.378,0.515-2.668,1.041-4.072,1.504c-1.436,0.474-2.934,0.79-4.34,1.355c-2.652,1.065-5.442,1.478-8.24,2.023
	c-0.404,0.078-1.081,0.362-1.425,0.346c0.008-0.562-0.773-1.76-0.634-2.04"/>
<path fill="#A5CF5C" d="M172.313,314.438c0.626,0.037,1.276-0.321,1.859-0.514c0.896-0.296,1.735-0.432,2.659-0.594
	c1.107-0.195,2.198-0.396,3.233-0.814c2.093-0.847,4.275-1.55,6.328-2.433c1.869-0.805,4-1.507,5.739-2.633
	c1.682-1.089,3.396-2.135,5.07-3.263c0.845-0.568,1.652-1.095,2.611-1.453c0.757-0.283,2.066-0.706,2.872-0.428
	c0.175,0.782-1.105,1.941-1.593,2.464c-1.005,1.078-2.358,1.989-3.546,2.842c-1.205,0.864-2.495,1.946-3.881,2.463
	c-1.558,0.58-3.029,1.28-4.567,1.884c-2.191,0.859-4.454,1.711-6.672,2.427c-0.719,0.232-1.416,0.496-2.129,0.726
	c-0.813,0.261-1.67,0.387-2.477,0.649c-1.241,0.404-4.49,1.556-5.197-0.068c-0.159-0.364-0.121-0.737-0.122-1.13"/>
<path fill="#706EB2" d="M174.875,316.625c0.51-0.162,1-0.597,1.505-0.826c0.434-0.197,0.892-0.377,1.309-0.549
	c0.765-0.315,1.598-0.531,2.403-0.797c0.934-0.309,1.833-0.727,2.767-0.939c1.151-0.263,2.241-0.794,3.408-1.092
	c1.719-0.438,3.071-1.467,4.685-2.091c1.906-0.737,3.47-1.953,5.065-3.092c1.537-1.098,2.935-2.236,4.481-3.333
	c1.069-0.758,2.345-2.03,3.754-1.969c2.579,0.114-0.973,3.37-1.69,3.969c-1.96,1.636-4.184,3.015-6.326,4.471
	c-2.459,1.672-5.331,2.538-8.042,3.795c-1.872,0.868-3.827,1.627-5.749,2.389c-1.579,0.627-3.06,0.978-4.763,0.939
	c-0.536-0.012-1.232-0.07-1.73-0.244c-0.39-0.136-1.53-0.779-0.953-1.193"/>
<path fill="#995EA5" d="M180.438,317.125c0.866-1.085,2.47-1.52,3.7-2.042c0.89-0.378,1.763-0.755,2.688-1.086
	c1.632-0.584,3.211-1.088,4.796-1.858c2.123-1.031,4.4-1.912,6.126-3.527c0.639-0.598,1.204-1.266,1.875-1.803
	c0.773-0.618,1.462-1.085,2.065-1.901c0.461-0.625,1.078-1.161,1.684-1.63c0.591-0.457,1.247-1.135,1.989-1.215
	c0.517-0.056,1.893-0.205,2.293,0.086c0.636,0.463-0.295,1.55-0.603,2.036c-1.021,1.614-2.582,2.808-4.113,3.951
	c-2.106,1.574-4.345,3.327-6.654,4.561c-2.527,1.35-5.332,2.332-8.007,3.246c-2.434,0.832-5.137,1.245-7.715,1.245"/>
<path fill="#F05760" d="M166,293.313c0.141-0.901,1.435-1.666,2.201-1.875c0.812-0.222,1.622-0.152,2.478-0.197
	c-0.239-0.968-2.262-1.25-3.069-0.853c-0.804,0.396-1.988,1.733-1.61,2.737"/>
<path fill="#EF9959" d="M165.688,293.5c0.349-1.583,1.562-1.952,3.006-2.19c0.919-0.152,3.015-0.317,3.429,0.743
	c-1.142,0.061-2.204,0.049-3.307,0.413c-0.966,0.318-2.208,0.752-2.882,1.512c0.103-0.312,0.156-0.644,0.129-0.978"/>
<path fill="#EED459" d="M166,294.875c0-0.619-0.146-1.23,0.326-1.641c0.444-0.385,1.215-0.427,1.737-0.604
	c0.794-0.272,1.501-0.499,2.339-0.644c0.497-0.086,1.841-0.575,2.143,0.02c-1.03,0.235-2.197,0.729-3.238,1.116
	c-1.108,0.412-2.499,0.702-3.369,1.503"/>
<path fill="#EED459" d="M167.424,299.441c0.307-2.023,2.493-2.406,4.124-3.092c0.801-0.338,4.23-2.217,4.75-0.733
	c-0.582,0.235-1.257,0.238-1.871,0.396c-1.162,0.3-2.403,0.916-3.516,1.378c-1.238,0.514-2.286,1.368-3.361,2.113"/>
<path fill="#A5CF5C" d="M165.75,295.188c0.604-1.501,1.714-1.688,3.12-2.181c0.729-0.256,1.465-0.43,2.199-0.68
	c0.662-0.227,1.471-0.638,1.992,0.037c-1.455,0.471-2.959,1.095-4.399,1.592c-0.504,0.174-0.987,0.339-1.475,0.558
	c-0.387,0.174-0.675,0.535-1.053,0.669c-0.01-0.112-0.029-0.259-0.008-0.37"/>
<path fill="#706EB2" d="M166.313,295.813c0.008-0.728,0.113-1.031,0.813-1.33c0.658-0.28,1.329-0.539,2-0.813
	c1.14-0.467,3.073-1.563,4.311-1.175c-0.553,0.981-2.727,1.494-3.697,1.832c-1.137,0.397-2.229,0.865-3.364,1.236"/>
<path fill="#995EA5" d="M166.441,295.528c-0.058,0.616,0.411,1.106,0.371,1.665c0.907-0.881,1.733-1.444,2.944-1.902
	c0.838-0.318,1.824-0.577,2.707-0.735c0.329-0.059,1.633,0.006,1.855-0.196c0.451-0.412-0.619-1.274-1-1.398
	c-0.741-0.239-1.629,0.512-2.278,0.769c-0.72,0.285-1.396,0.593-2.146,0.738c-0.758,0.146-2.146,0.278-2.638,0.998"/>
<path fill="#995EA5" d="M180,303.438c0.922-0.537,2.245-1.451,2.918-0.058c-0.783,0.248-1.939,0.058-2.793,0.058"/>
<path fill="#F05760" d="M167.487,299.004c0.461-1.813,2.656-3.421,4.362-3.871c1.397-0.369,2.817-0.396,4.172,0.151
	c-0.739-0.817-0.976-1.225-2.146-1.294c-1.223-0.072-2.197,0.027-3.309,0.488c-1.25,0.518-2.919,0.684-3.773,1.896
	c-0.605,0.858-0.049,1.815,0.456,2.501"/>
<path fill="#A5CF5C" d="M167.862,299.441c-0.031-1.431,2.203-1.977,3.241-2.3c1.309-0.408,2.648-1.136,3.996-1.437
	c0.365-0.081,1.683-0.291,1.515,0.426c-0.093,0.396-1.118,0.471-1.445,0.57c-0.953,0.288-1.88,0.66-2.797,1.042
	c-0.944,0.394-1.871,0.711-2.698,1.32c-0.596,0.438-1.157,0.899-1.741,1.364c-0.149-0.451-0.151-1.006-0.134-1.486"/>
<path fill="#EF9959" d="M167.362,299.504c-0.355-1.806,2.095-3.672,3.488-4.285c1.381-0.606,4.002-1.102,5.368-0.17
	c-0.502,0.398-1.428,0.231-2.055,0.418c-1.208,0.357-2.371,0.9-3.552,1.353c-0.649,0.248-1.256,0.457-1.777,0.886
	c-0.385,0.316-1.453,0.894-1.347,1.486"/>
<path fill="#706EB2" d="M168.25,300.781c-0.228-0.228-0.346-0.642-0.117-0.91c0.142-0.166,0.295-0.104,0.458-0.186
	c0.166-0.082,0.293-0.272,0.438-0.401c0.642-0.571,1.44-0.904,2.143-1.386c1.219-0.835,2.68-1.167,4.115-1.375
	c0.424-0.062,1.308-0.384,1.714-0.191c1.634,0.771-2.964,1.652-3.082,1.691c-1.125,0.379-2.5,0.602-3.436,1.342
	c-0.574,0.454-1.216,1.182-1.919,1.457"/>
<path fill="#995EA5" d="M167.938,301.625c-0.197-1.584,1.982-2.283,3.087-2.701c1.495-0.566,2.877-1.392,4.381-1.877
	c0.326-0.104,1.644-0.516,1.85-0.112c0.444,0.873-4.044,2.154-4.59,2.345c-0.953,0.331-1.701,0.648-2.351,1.381
	c-0.563,0.634-1.07,1.349-1.619,2.003c-0.157-0.749-0.345-1.513-0.634-2.226"/>
<path fill="#F05760" d="M168.594,302.692c0.609-1.371,2.119-2.688,3.304-3.549c0.937-0.682,1.91-1.365,3.096-1.502
	c0.394-0.046,0.787-0.05,1.183-0.067c0.353-0.017,0.751-0.312,1.075-0.263c0.241,0.035,0.322,0.243,0.481,0.392
	c0.177,0.166,0.434,0.249,0.545,0.479c-1.487,0.078-2.857,0.353-4.33,0.684c-0.833,0.187-2.093,0.746-2.671,1.381
	c-0.467,0.513-0.893,1.265-1.355,1.834c-0.2,0.246-1.33,1.899-1.203,0.861"/>
<path fill="#EF9959" d="M168.876,303.198c0.837-1.688,1.955-3.168,3.563-4.203c0.808-0.521,2.042-0.777,3-0.923
	c0.572-0.088,2.514-0.476,2.878,0.053c-1.417,0.312-2.911,1.007-4.231,1.606c-0.826,0.375-1.469,0.724-2.181,1.284
	c-0.999,0.786-2.006,1.706-3.028,2.433"/>
<path fill="#EED459" d="M169.063,303.198c-0.709-1.34,3.458-2.857,4.311-3.232c0.909-0.4,1.817-0.834,2.783-1.156
	c0.688-0.229,1.905-0.954,2.526-0.176c-0.219,0.587-2.153,1.01-2.661,1.214c-1.231,0.496-2.51,1.058-3.598,1.774
	c-1.168,0.769-2.445,1.627-3.402,2.683c0.192-0.354,0.103-0.834,0.103-1.231"/>
<path fill="#A5CF5C" d="M169.126,304.261c-0.067-1.862,2.838-3.005,4.209-3.509c1.032-0.38,2.043-0.783,3.075-1.181
	c0.601-0.23,1.741-1.033,2.339-0.623c-0.312,0.338-0.873,0.376-1.271,0.567c-0.419,0.202-0.744,0.565-1.209,0.676
	c-0.608,0.144-0.995,0.634-1.574,0.899c-0.29,0.133-0.545,0.229-0.859,0.29c-0.852,0.169-1.518,0.77-2.204,1.271
	c-0.813,0.594-1.599,1.226-2.325,1.924c-0.132-0.171-0.187-0.396-0.181-0.627"/>
<path fill="#706EB2" d="M169.188,305.073c0.007-0.992,1.983-2.39,2.814-2.892c0.757-0.458,1.604-0.679,2.38-1.092
	c0.762-0.405,1.439-0.787,2.246-1.122c0.676-0.281,1.651-0.943,2.43-0.821c-0.916,0.97-2.564,1.185-3.746,1.807
	c-0.855,0.451-1.691,0.824-2.464,1.443c-0.635,0.509-1.155,1.073-1.782,1.567c-0.565,0.445-1.272,0.866-1.878,1.297"/>
<path fill="#F05760" d="M169.563,306.313c0.085,0.084,2.472-3.23,2.877-3.592c1.056-0.94,2.16-1.677,3.473-2.151
	c1.109-0.402,2.744-1.016,3.939-0.64c-0.493,0.475-1.407,0.843-1.985,1.184c-1,0.59-2.121,1.007-3.124,1.524
	c-0.751,0.388-1.552,1.096-2.114,1.723c-0.499,0.558-0.911,1.111-1.375,1.699c-0.474,0.601-0.739,1.341-1.369,1.798
	c-0.105-0.449-0.144-0.912-0.322-1.357"/>
<path fill="#995EA5" d="M169.5,306.375c0.31-0.436,0.038-0.851,0.139-1.317c0.104-0.48,0.647-0.83,1.078-1.134
	c0.483-0.341,0.959-0.691,1.438-1.037c0.461-0.332,0.808-0.638,1.187-1.036c0.686-0.72,1.818-0.844,2.665-1.294
	c0.323-0.172,0.639-0.358,0.97-0.513c0.348-0.163,0.708-0.2,1.056-0.323c0.572-0.201,1.028-0.557,1.396,0.204
	c-0.289,0.158-0.811-0.005-1.147,0.044"/>
<path fill="#EF9959" d="M169.813,307.375c0.939-0.952,1.523-2.288,2.483-3.251c0.82-0.824,1.909-1.35,2.833-2.012
	c0.879-0.63,1.625-1.13,2.649-1.517c0.485-0.184,0.993-0.487,1.521-0.408c0.399,0.06,1.044,0.564,1.245,0.943
	c-1.474,0.404-2.998,0.979-4.437,1.608c-0.903,0.395-1.589,1.139-2.35,1.75c-0.654,0.525-1.476,1.03-2.194,1.587
	c-0.469,0.364-0.761,0.724-1.063,1.208c-0.219,0.351-0.334,0.819-0.616,1.12c-0.021-0.353-0.009-0.729-0.009-1.092"/>
<path fill="#EED459" d="M169.813,308.313c0.067-0.565,0.754-1.335,1.111-1.795c0.36-0.465,0.73-0.772,1.2-1.126
	c0.978-0.734,1.945-1.378,2.937-2.091c0.695-0.501,5.413-3.798,5.672-1.612c-2.604,1.405-5.395,2.641-7.904,4.108
	c-0.478,0.279-1.011,0.638-1.454,0.966c-0.391,0.288-1.185,0.866-1.374,1.3"/>
<path fill="#A5CF5C" d="M169.938,308.625c-0.077-2.283,2.991-3.241,4.558-4.203c1.113-0.683,2.344-1.139,3.514-1.715
	c0.772-0.381,1.539-0.99,2.428-1.053c0.381-0.026,0.804,0.126,1.058,0.424c0.266,0.313,0.142,0.569-0.277,0.547
	c-0.32-0.018-0.679-0.104-0.995-0.083c-0.312,0.021-0.605,0.211-0.885,0.34c-0.816,0.375-1.624,0.772-2.457,1.11
	c-1.234,0.5-2.596,0.992-3.702,1.754c-0.846,0.583-2.585,1.664-2.991,2.691"/>
<path fill="#706EB2" d="M170.188,308.75c-1.11-0.675,2.923-2.754,3.378-3.045c0.736-0.472,1.336-0.989,2.1-1.42
	c0.94-0.531,1.994-0.952,3.015-1.344c0.675-0.26,1.384-0.503,2.07-0.566c0.494-0.046,1.746,0.008,0.972,0.675
	c-0.292,0.251-1.042,0.381-1.404,0.547c-1.075,0.493-2.16,1.011-3.225,1.484c-0.849,0.378-1.754,0.725-2.594,1.077
	c-0.971,0.407-1.789,1.123-2.559,1.84c-0.598,0.557-1.418,1.806-2.003,0.627"/>
<path fill="none" stroke="#000000" stroke-miterlimit="10" d="M170.34,309.999c3.224-5.894,12.556-6.67,18.22-6.669
	c6.753,0.001,13.52-2.164,20.081-1.617c-1.688,3.441-5.649,6.773-8.789,8.895c-4.127,2.788-9.225,5.521-14.277,6.463
	c-2.463,0.459-7.757,1.12-10.167,0.219c-5.307-1.986-5.641-11.819-7.574-16.484c-1.206-2.909-4.579-11.259,1.75-10.195
	c6.176,1.038,9.004,10.714,14.583,12.75"/>
<path fill="none" stroke="#000000" stroke-miterlimit="10" d="M94.5,263.75c5.256,2.9,9.417,8.751,13.682,13.139
	c3.807,3.916,8.462,4.896,13.812,4.611c10.194-0.541,19.941-7.897,29.744-8.853"/>
<path fill="#151415" d="M70.667,349.853c-0.815,1.318-2.332,4.933-2.337,6.662c-0.007,2.407,4.299,2.776,6.355,3.188
	c4.324,0.867,3.343-5.944,2.234-8.145c-0.896-1.778-3.486-2.263-5.419-2.206"/>
<path d="M99.667,357.019c0.912,0.176,2.038,1.107,2.992,0.846c1.398-0.384,1.027-1.705,1.325-2.758
	c2.741,1.665-0.214,7.121-3.149,2.246"/>
<path d="M71.333,355.019c0.748,0.146,2.343,0.963,3.137,0.503c0.927-0.536,0.267-1.506,0.384-2.584
	c0.88,0.817,1.893,3.34,1.79,4.556c-2.219,0.086-3.99-0.771-4.811-2.975"/>
<path fill="#351D25" d="M100,338.344c1.632,1.223,7.442,0.763,9.822,0.683c4.068-0.137,6.215-1.608,9.396-3.77
	c1.333-0.905,2.943-1.803,3.985-3.076c0.992-1.212,1.463-2.844,2.604-4.13c0.167,3.805-1.097,7.457-3.788,10.109
	c-2.388,2.354-5.882,5.812-9.334,6.018c-3.345,0.2-7.628,0.464-10.843-0.536c-1.296-0.403-2.423-0.733-2.476-1.831
	c-0.014-0.282,0.568-1.209,0.632-1.637c0.063-0.424-0.004-0.903,0-1.33"/>
<path fill="#351D25" d="M94.5,333.178c-2.654,2.055-3.482,5.09-7.097,5.5c-4.241,0.481-7.828-1.103-10.547-4.159
	c5.94-0.103,11.392-0.392,17.145-1.341"/>
<path fill="#E94B4B" d="M83.974,222.146c-2.276-0.349-3.378-2.326-5.782-2.182c-0.835,0.05-5.126,0.594-2.85-1.238
	c0.859-0.691,2.903-0.962,3.983-0.892C81.07,217.948,84.547,219.972,83.974,222.146z"/>
</svg>
